<svg xmlns="http://www.w3.org/2000/svg" width="273.531" height="198.448" viewBox="259.235 207 273.531 198.448"><path fill="#FFF" d="M395.87 226.561l2.593-3.214c-1.635-.405-2.569-2.836-2.597-2.916l-.001-.001-.002.001c-.028.08-.96 2.511-2.594 2.916l2.59 3.214.001.016.005-.009.004.009.001-.016zm-2.031-8.055s-2.199-4.022-4.667-4.022c-1.585 0-2.51 1.303-2.51 2.719 0 1.531 1.489 3.026 2.823 3.026 0 0 .313-3.322 4.354-1.723m8.371 1.723c1.334 0 2.826-1.495 2.826-3.026 0-1.416-.927-2.719-2.511-2.719-2.472 0-4.669 4.022-4.669 4.022 4.039-1.599 4.354 1.723 4.354 1.723m-3.478-7.215c0-4.243-2.877-6.014-2.877-6.014s-2.866 1.771-2.866 6.014c0 2.27 1.764 4.934 2.86 6.34h.02c1.098-1.406 2.863-4.07 2.863-6.34m-25.388 70.049c-2.578-1.288-5.133-2.719-7.192-4.647-1.008-.98-1.915-2.039-2.621-3.251-.378-.604-.633-1.216-.912-1.824l-.382-1.091c-.048-.154-.17-.441-.169-.48l-.133-.509c-.242-.825-.385-1.701-.499-2.59l-2.461-1.993c-.238 1.708-.291 3.471.118 5.27l.133.633c.083.342.12.417.193.634l.4 1.11c.359.812.726 1.625 1.178 2.336.883 1.455 1.964 2.793 3.232 3.873 2.554 2.134 5.421 3.495 8.146 4.625 2.734 1.142 5.373 2.1 7.769 3.221a25.958 25.958 0 0 1 2.945 1.589c.052-.409.198-.806.496-1.115 0 0-1.476-1.294-3.062-2.179-2.387-1.335-4.602-2.32-7.179-3.612m28.173-25.501v-5.718c-2.477 1.206-4.343 1.989-5.599 2.345a14.262 14.262 0 0 1-3.909.533c-2.727 0-4.967-.749-6.709-2.261-1.742-1.526-2.621-3.45-2.621-5.769 0-2.313.895-4.227 2.657-5.718 1.774-1.496 4.056-2.252 6.835-2.252 2.849 0 5.871.899 9.045 2.69v-9.047h-5.54v1.267a21.437 21.437 0 0 0-3.963-.369c-4.702 0-8.508 1.321-11.41 3.942-2.913 2.633-4.371 5.831-4.371 9.602 0 3.766 1.379 6.939 4.15 9.511 2.75 2.569 6.472 3.86 11.122 3.86 3.584-.003 7.034-.881 10.313-2.616m-5.48 12.755c1.244.219 2.544.354 3.967.354 4.699 0 8.494-1.312 11.404-3.933 2.919-2.631 4.376-5.837 4.376-9.601 0-3.765-1.386-6.933-4.143-9.511-2.771-2.571-6.47-3.857-11.133-3.857-3.597 0-7.031.876-10.312 2.613v5.712c2.476-1.197 4.347-1.986 5.595-2.339 1.261-.37 2.561-.53 3.912-.53 2.728 0 4.973.748 6.714 2.266 1.749 1.516 2.623 3.444 2.623 5.762s-.897 4.217-2.667 5.715c-1.773 1.497-4.052 2.247-6.84 2.247-2.848 0-5.856-.894-9.023-2.681v9.035h5.529v-1.252h-.002zm41.201-42.244s-3.301 1.554-9.387.886c-2.602-.287-5.883-1.367-8.411-2.804-2.121-1.202-7.207-4.972-12.242-4.972-3.822 0-7.121 2.644-9.378 7.028l.478.434s3.78-4.553 10.332-4.553c3.214 0 5.797.601 9.187 2.389 3.094 1.63 5.054 4.211 9.805 4.755 5.017.573 8.349-1.866 9.85-2.732l-.234-.431zm-82.912.43c1.506.866 4.837 3.305 9.853 2.732 4.751-.544 6.711-3.125 9.806-4.755 3.39-1.788 5.974-2.389 9.185-2.389 6.554 0 10.331 4.553 10.331 4.553l.482-.434c-2.261-4.384-5.56-7.028-9.38-7.028-5.036 0-10.12 3.77-12.239 4.972-2.531 1.437-5.814 2.518-8.413 2.804-6.086.668-9.388-.886-9.388-.886l-.237.431zm84.348 2.079l-.282-.477c-2.531 1.462-8.195 5.964-9.658 11.679-1.536 5.996-.36 11.41.558 15.146l1.158-.921c-.701-3.957-.811-8.596 1.066-14.455 2.129-6.651 5.541-9.766 7.158-10.972m-8.499 38.09c-.117.9-.257 1.79-.5 2.628l-.128.507c.001.038-.12.325-.162.48l-.373 1.096c-.272.608-.522 1.229-.896 1.84-.691 1.22-1.598 2.292-2.593 3.294-2.04 1.966-4.596 3.448-7.173 4.752-2.574 1.316-4.588 2.221-6.972 3.538-1.354.745-3.34 2.084-3.34 2.084.356.37.534.856.538 1.348a37.275 37.275 0 0 1 3.014-1.6c2.375-1.135 5-2.11 7.731-3.275 2.723-1.145 5.589-2.554 8.127-4.732 1.256-1.099 2.335-2.448 3.206-3.913.445-.714.806-1.536 1.159-2.353l.387-1.112c.073-.218.104-.293.19-.633l.131-.632c.402-1.811.35-3.586.112-5.304l-2.458 1.987zm-69.866-27.118c1.877 5.859 1.769 10.498 1.067 14.455l1.158.921c.918-3.736 2.094-9.15.558-15.146-1.463-5.715-7.128-10.217-9.657-11.679l-.282.477c1.616 1.206 5.027 4.321 7.156 10.972m35.477 55.436a6.765 6.765 0 1 1 0-13.529 6.765 6.765 0 1 1 0 13.529m10.336-8.498c-.641-.664-1.063-1.956-.931-2.865l.106-.763a1.744 1.744 0 0 0-1.42-1.941l-.746-.135c-.909-.155-2.001-.949-2.436-1.771l-.361-.671c-.427-.815-1.454-1.146-2.284-.743l-.688.336c-.828.405-2.182.405-3.006 0l-.691-.336c-.824-.402-1.859-.072-2.283.743l-.36.671c-.434.822-1.527 1.616-2.432 1.771l-.758.135a1.745 1.745 0 0 0-1.411 1.941l.103.763c.139.909-.284 2.201-.928 2.865l-.53.545a1.741 1.741 0 0 0 0 2.398l.53.555c.644.66 1.066 1.952.928 2.857l-.103.755a1.756 1.756 0 0 0 1.411 1.949l.758.128c.904.167 1.998.957 2.432 1.772l.36.676a1.755 1.755 0 0 0 2.283.749l.691-.344c.824-.401 2.177-.401 3.006 0l.688.344a1.755 1.755 0 0 0 2.284-.749l.361-.676c.435-.815 1.526-1.605 2.436-1.772l.746-.128c.91-.165 1.548-1.036 1.42-1.949l-.106-.755c-.133-.905.289-2.197.931-2.857l.535-.555a1.755 1.755 0 0 0 0-2.398l-.535-.545zm-10.339-1.135a2.866 2.866 0 1 0 0 5.734 2.866 2.866 0 1 0 0-5.734m5.577 13.376l-.412.765c-.483.919-1.652 1.306-2.596.853l-.785-.392c-.275-.133-.61-.216-.96-.272l2.993 9.083 2.317-3.595 3.936.836-2.844-8.84c-.687.393-1.329.962-1.649 1.562m-7.996 1.619c-.936.453-2.111.066-2.599-.853l-.41-.765c-.304-.572-.904-1.114-1.553-1.506l-2.944 8.863 3.95-.842 2.318 3.595 3.02-9.158c-.365.053-.713.135-.998.275l-.784.391zm38.447-40.063a106.253 106.253 0 0 1-.906-3.63c-.066-.28-.139-.561-.195-.839l-.669.507-27.925 22.356c.588.542 1.337.984 2.013 1.096l.853.154a1.985 1.985 0 0 1 1.61 2.211l-.121.867c-.047.314-.018.67.044 1.033l25.352-20.545.583-.494c-.06-.28-.132-.547-.192-.826l.012-.011a89.45 89.45 0 0 0-.459-1.879m-45.078 19.644l.858-.154c.675-.113 1.421-.554 2.009-1.096l-27.865-22.356-.732-.471c-.043.199-.098.405-.14.605a86.555 86.555 0 0 1-.949 3.831 77.38 77.38 0 0 0-.473 1.91l.014.012c-.059.254-.126.496-.181.754l.574.531 25.356 20.547c.06-.364.086-.721.038-1.036l-.118-.867c-.145-1.035.585-2.028 1.609-2.21m98.114 118.159c.156.435.233.911.233 1.441 0 .503-.086.983-.257 1.448a3.496 3.496 0 0 1-.74 1.191 4.15 4.15 0 0 1-1.354.91 4.034 4.034 0 0 1-1.58.333c-.502 0-.978-.09-1.422-.27-.463-.187-.887-.494-1.282-.922a3.888 3.888 0 0 1-.841-1.406l1.421-.976a2.3 2.3 0 0 1 .116.233c.03.083.061.146.079.2a.837.837 0 0 0 .078.148c.347.597.866.976 1.565 1.142.183.021.318.032.414.032.329 0 .641-.071.932-.217.286-.144.511-.35.678-.616.24-.395.364-.829.364-1.293s-.139-.837-.409-1.113a3.959 3.959 0 0 0-.812-.647c-.294-.17-.661-.361-1.121-.568a25.1 25.1 0 0 1-1.1-.54 5.612 5.612 0 0 1-1.196-.84c-.345-.314-.57-.665-.67-1.049a2.965 2.965 0 0 1-.141-.909c0-.7.205-1.297.603-1.794.707-.869 1.588-1.306 2.656-1.306.318 0 .598.03.834.09.273.069.562.19.873.374.304.175.577.389.811.631.241.246.419.49.539.737-.147.106-.388.264-.725.485-.343.219-.596.383-.748.5-.445-.656-.959-.985-1.551-.985a1.38 1.38 0 0 0-.391.058 1.024 1.024 0 0 0-.584.34 1.138 1.138 0 0 0-.309.607c0 .661.234 1.116.701 1.365.04.02.392.173 1.044.466.653.291 1.167.543 1.543.755.376.21.722.479 1.034.798.311.314.552.704.715 1.167m-14.592-4.03c-.08-.334-.23-.607-.457-.806a2.16 2.16 0 0 0-.76-.44 4.001 4.001 0 0 0-.885-.176 13.602 13.602 0 0 0-1.114-.043h-.501l-.07.06v3.497a29.92 29.92 0 0 1 1.282.019 5.36 5.36 0 0 0 1.206-.129c.354-.087.647-.252.873-.493a1.646 1.646 0 0 0 .426-1.489m3.899 9.051c0 .047-.061.07-.174.07h-1.959c-.026 0-1.32-1.743-3.881-5.238h-1.673v5.168l-.059.07h-1.665l-.039-.109v-12.189l.137-.017h2.196c.894 0 1.662.051 2.3.157.64.105 1.213.347 1.722.722.505.373.873.94 1.101 1.694.096.363.143.698.143 1.014 0 .376-.06.749-.181 1.113s-.301.688-.527.973c-.18.227-.375.403-.6.534-.218.13-.505.268-.858.414v.085a90.062 90.062 0 0 1 1.94 2.638c.384.541.736 1.047 1.077 1.508.33.468.664.931 1 1.393m-14.011.014c0 .049-.026.074-.076.074h-7.838a.113.113 0 0 1-.06-.036c-.019-.021-.03-.031-.037-.038v-12.176c.007-.016.016-.027.022-.042.008-.015.029-.024.061-.024h7.549c.05 0 .075.021.075.066v1.617c0 .049-.025.074-.075.074h-5.73l-.143.019v2.949h4.343c.036 0 .057.018.057.052v1.621c0 .051-.03.077-.089.077h-4.257c-.038 0-.054.027-.054.089v3.994h6.19c.037 0 .062.018.062.057v1.627zm-14.313-6.117a4.17 4.17 0 0 0-.354-1.712 4.377 4.377 0 0 0-.985-1.396 4.619 4.619 0 0 0-3.193-1.279H438.7v8.799h2.707c.591 0 1.158-.111 1.707-.346a4.378 4.378 0 0 0 1.436-.958c.412-.409.728-.881.948-1.402a4.336 4.336 0 0 0 .332-1.706m1.731 0c0 .836-.159 1.631-.482 2.389-.32.76-.76 1.414-1.317 1.974a6.237 6.237 0 0 1-1.985 1.324 6.028 6.028 0 0 1-2.406.487h-4.363c-.045 0-.065-.018-.065-.057v-12.176c0-.057.028-.082.081-.082h4.293c.462 0 .883.033 1.266.105.384.066.729.168 1.046.303.315.133.653.309 1.003.527a6.53 6.53 0 0 1 1.546 1.351 5.958 5.958 0 0 1 1.022 1.778c.239.662.361 1.351.361 2.077m-15.743 6.103c0 .047-.023.07-.076.07h-1.616c-.046 0-.068-.018-.068-.057V392.95c0-.057.031-.082.082-.082h1.625c.035 0 .054.017.054.051v12.194zm-9.666-9.051a1.485 1.485 0 0 0-.45-.806 2.227 2.227 0 0 0-.761-.44c-.284-.092-.579-.149-.891-.176s-.681-.043-1.108-.043h-.506l-.071.06v3.497a30.641 30.641 0 0 1 1.284.019c.45 0 .852-.047 1.21-.129.354-.087.643-.252.868-.493.31-.331.464-.718.464-1.161a2.043 2.043 0 0 0-.039-.328m3.903 9.051c0 .047-.06.07-.173.07h-1.962c-.021 0-1.316-1.743-3.881-5.238h-1.674v5.168l-.057.07h-1.667l-.032-.109v-12.189l.135-.017h2.197c.891 0 1.656.051 2.296.157a3.927 3.927 0 0 1 1.724.722c.507.373.871.94 1.097 1.694.1.363.147.698.147 1.014 0 .376-.059.749-.18 1.113a3.19 3.19 0 0 1-.529.973 2.147 2.147 0 0 1-.6.534c-.222.13-.507.268-.859.414v.085c.168.217.439.577.811 1.078.371.499.749 1.021 1.129 1.56.386.541.74 1.047 1.075 1.508.334.468.666.931 1.003 1.393m-22.082-9.414c-.029.051-.06.076-.082.076-.038 0-.181-.064-.427-.195a7.267 7.267 0 0 0-1.137-.572 7.567 7.567 0 0 0-1.311-.402 6.546 6.546 0 0 0-1.314-.143c-.458 0-.907.061-1.354.176a3.799 3.799 0 0 0-1.189.533 4.42 4.42 0 0 0-1.574 1.696 4.803 4.803 0 0 0-.546 2.271c0 .199.004.351.015.454.074.803.406 1.556 1.004 2.262.596.707 1.294 1.207 2.096 1.495.479.178.993.265 1.53.265.493 0 .981-.072 1.468-.219a7.835 7.835 0 0 0 1.376-.564c.432-.229.892-.511 1.383-.839.018 0 .027.067.027.199v1.851c-.563.434-1.227.763-1.985.995a7.69 7.69 0 0 1-2.314.353c-.491 0-.987-.052-1.483-.162a6.341 6.341 0 0 1-1.383-.457 6.284 6.284 0 0 1-1.754-1.279 6.329 6.329 0 0 1-1.247-1.811 5.892 5.892 0 0 1-.541-2.061 4.86 4.86 0 0 1-.024-.582c0-1.086.241-2.091.722-3.015.483-.923 1.183-1.714 2.096-2.378.996-.703 2.241-1.057 3.734-1.057.751 0 1.488.102 2.196.299.71.198 1.346.488 1.902.863l.102.148.014 1.8zm-15.335 9.414c0 .047-.026.07-.073.07h-1.622c-.04 0-.064-.018-.064-.057V392.95c0-.057.027-.082.083-.082h1.622c.033 0 .055.017.055.051v12.194zm-6.894 0c0 .033-.027.053-.072.053h-1.612c-.051 0-.071-.02-.071-.053v-5.805h-6.453l-.071.073v5.731c0 .047-.027.07-.072.07h-1.606c-.055 0-.08-.023-.08-.07V392.92c0-.048.023-.07.08-.07h1.621c.038 0 .058.022.058.07v.084h.019v4.381c.007.027.013.055.036.099.017.036.054.059.105.066h6.325l.039-.057v-4.588a.108.108 0 0 1 .014-.036c.007-.014.025-.02.057-.02h1.646c.01 0 .021.006.027.02.008.01.01.021.01.036v12.208zm-14.971-9.414c-.029.051-.061.076-.083.076-.037 0-.181-.064-.43-.195a7.2 7.2 0 0 0-1.135-.572 7.572 7.572 0 0 0-1.309-.402 6.565 6.565 0 0 0-1.316-.143 5.39 5.39 0 0 0-1.353.176 3.784 3.784 0 0 0-1.19.533 4.446 4.446 0 0 0-1.575 1.696 4.792 4.792 0 0 0-.547 2.271c0 .199.005.351.016.454.074.803.406 1.556 1.005 2.262.594.707 1.293 1.207 2.095 1.495.48.178.993.265 1.53.265.493 0 .981-.072 1.468-.219a7.867 7.867 0 0 0 1.376-.564c.433-.229.892-.511 1.383-.839.019 0 .026.067.026.199v1.851c-.563.434-1.228.763-1.985.995a7.691 7.691 0 0 1-2.312.353c-.492 0-.988-.052-1.485-.162a6.341 6.341 0 0 1-1.383-.457 6.25 6.25 0 0 1-1.753-1.279 6.336 6.336 0 0 1-1.249-1.811 5.89 5.89 0 0 1-.54-2.061 4.86 4.86 0 0 1-.024-.582c0-1.086.242-2.091.722-3.015.482-.923 1.183-1.714 2.096-2.378.996-.703 2.24-1.057 3.734-1.057.752 0 1.488.102 2.196.299a6.524 6.524 0 0 1 1.903.863l.101.148.018 1.8zm-25.82.363c-.076-.334-.226-.607-.451-.806-.224-.2-.48-.346-.759-.44a3.995 3.995 0 0 0-.892-.176 13.397 13.397 0 0 0-1.109-.043h-.503l-.072.06v3.497a30.24 30.24 0 0 1 1.283.019c.45 0 .854-.047 1.209-.129.354-.087.644-.252.87-.493.309-.331.463-.718.463-1.161 0-.074-.012-.182-.039-.328m3.905 9.051c0 .047-.062.07-.177.07h-1.962c-.021 0-1.315-1.743-3.879-5.238h-1.674v5.168l-.057.07h-1.665l-.035-.109v-12.189l.135-.017h2.196c.892 0 1.658.051 2.297.157a3.909 3.909 0 0 1 1.723.722c.507.373.873.94 1.099 1.694.097.363.146.698.146 1.014 0 .376-.059.749-.179 1.113a3.174 3.174 0 0 1-.531.973 2.11 2.11 0 0 1-.597.534c-.223.13-.508.268-.861.414v.085c.169.217.438.577.811 1.078.374.499.75 1.021 1.129 1.56.385.541.741 1.047 1.074 1.508.337.468.667.931 1.007 1.393m-16.251-7.973a3.78 3.78 0 0 0-.563-.988 4.615 4.615 0 0 0-.876-.868 3.723 3.723 0 0 0-1.03-.564 4.6 4.6 0 0 0-1.584-.285 4.47 4.47 0 0 0-1.741.353 4.124 4.124 0 0 0-1.43.997c-.797.87-1.19 1.937-1.19 3.206 0 .603.103 1.185.318 1.757.248.66.666 1.241 1.255 1.75.587.513 1.228.835 1.913.977.251.049.526.072.818.072.579 0 1.121-.104 1.633-.317a4.794 4.794 0 0 0 1.414-.894c.296-.278.548-.602.763-.97.215-.367.372-.755.475-1.164.1-.411.151-.82.151-1.229 0-.64-.103-1.25-.326-1.833m1.524 4.855a6.292 6.292 0 0 1-2.304 2.502 6.325 6.325 0 0 1-3.236.951 6.08 6.08 0 0 1-1.806-.264 6.48 6.48 0 0 1-1.651-.774 6.232 6.232 0 0 1-1.384-1.207 5.905 5.905 0 0 1-.961-1.541c-.348-.805-.521-1.689-.521-2.651 0-.814.136-1.597.406-2.347a6.074 6.074 0 0 1 1.157-1.982c.648-.709 1.377-1.25 2.196-1.609a6.453 6.453 0 0 1 2.634-.539c.364 0 .725.025 1.082.081.779.114 1.525.422 2.241.913a7.334 7.334 0 0 1 1.85 1.848c.335.462.587 1 .753 1.616s.249 1.245.249 1.892c.001 1.166-.232 2.208-.705 3.111m-15.502-7.441c0 .048-.022.07-.074.07h-5.731l-.143.037v2.927h4.348c.032 0 .053.018.053.063v1.62c0 .05-.031.072-.091.072h-4.182a.401.401 0 0 0-.074.044c-.038.028-.053.055-.053.084v5.642c0 .047-.023.07-.076.07h-1.602c-.053 0-.083-.018-.083-.057V392.92c0-.035.029-.051.083-.051h7.552c.053 0 .074.017.074.051l-.001 1.634zm197.741-58.853c4.061-.905 6.853 2.828 7.088 7.973 0 1.124-.529 1.852-1.85 2.225l-11.346 3.177a21.302 21.302 0 0 1-.152-2.482c.001-7.83 4.215-10.432 6.26-10.893m20.215 26.844c-2.846 1.146-5.797 1.494-9.11 1.494-9.636 0-14.777-5.579-16.595-11.912l23.108-5.441c0-11.312-8.17-14.482-13.8-14.482-9.788 0-19.728 7.338-19.728 19.727 0 12.258 10.073 19.728 19.444 19.728 8.312 0 13.868-3.771 16.86-8.954l-.179-.16zm-67.62-15.951c0-7.541 4.777-11.061 7.978-11.425 5.023-.563 8.583 3.22 8.932 9.825v20.053c-.553.105-1.2.163-1.971.163-9.494.001-14.939-9.805-14.939-18.616m26.906 13.483v-50.134l-.26-.133-14.141 5.986.204.51c2.853 0 4.2 2.346 4.2 6.025V333.7a16.5 16.5 0 0 0-6.834-1.497c-9.781 0-19.727 7.338-19.727 19.728 0 11.303 8.058 19.727 17.94 19.727 3.635 0 7.03-1.338 9.37-3.042l.794 2.886.364.156 13.529-2.441.048-.625c-3.799-.717-5.487-2.992-5.487-8.515m-42.045-27.761c-4.12 0-7.232 3.373-9.01 7.504l-.442-7.651-.258-.134-13.636 6.51.202.507c2.424-.401 3.979 1.591 4.2 5.869v19.239c-.193 3.646-2.076 6.009-4.088 6.199v.808h19.479v-.832c-2.572-.378-5.101-2.522-5.39-6.328v-19.274c.655-1.832 1.447-3.278 2.925-3.278 1.925 0 4.083 2.303 6.499 2.303 2.422 0 5.105-2.438 5.105-5.759s-2.627-5.683-5.586-5.683m-43.264 33.663c-4.062 0-6.35-3.031-6.35-5.998 0-5.117 4.286-8.886 9.961-10.592v15.401c0 .038.004.081.004.117-.894.622-2.048 1.072-3.615 1.072m19.658-1.961c-2.897 2.252-6.093 1.141-6.093-2.289V345.63c0-7.59-5.337-13.563-14.042-13.563-9.932 0-15.337 8.316-15.337 8.316l.668.403c3.281-2.466 6.554-3.453 9.47-3.453 7.218 0 9.289 4.759 9.289 9.376v.411c-8.785 1.788-20.89 5.067-20.89 15.037 0 4.671 4.536 9.489 10.727 9.489 3.928 0 7.98-1.836 10.498-4.576.787 2.585 2.95 4.576 6.267 4.576 4.072 0 7.766-3.613 9.779-7.305l-.336-.323zm-48.747.021c-12.405 0-17.369-9.253-17.369-17.445 0-7.541 4.228-10.826 7.423-11.178 5.724-.62 10.301 3.027 12.252 12.184h.791l4.456-11.646s-6.538-3.75-14.845-3.75c-9.783 0-19.723 7.338-19.723 19.727 0 12.258 10.075 19.728 19.444 19.728 8.604 0 13.862-3.771 16.861-8.954l-.178-.158c-2.853 1.144-5.799 1.492-9.112 1.492m-81.238-2.814c-16.984 0-23.584-14.029-23.584-25.248 0-9.242 5.592-14.092 9.967-14.591 8.636-.997 14.067 7.841 18.241 18.636h.81l4.911-17.258s-8.952-5.137-20.329-5.137c-13.399 0-27.016 10.049-27.016 27.012 0 16.788 13.796 27.019 26.635 27.019 12.204 0 19.941-7.187 21.666-13.437l-.148-.128c-2.612 1.69-6.613 3.132-11.153 3.132m34.391 6.99c-4.674.749-8.627-6.134-10.066-15.166-1.441-9.031.19-16.801 4.86-17.544 4.669-.748 8.632 6.134 10.068 15.17 1.436 9.032-.192 16.796-4.862 17.54m-2.602-36.149c-10.937 0-19.261 8.86-19.261 19.793 0 10.938 8.323 19.798 19.261 19.798 10.929 0 19.254-8.86 19.254-19.798 0-10.932-8.325-19.793-19.254-19.793"/></svg>