<svg xmlns="http://www.w3.org/2000/svg" width="792" height="612" viewBox="0 0 792 612"><path fill="#FFF" d="M395.87 226.561l2.593-3.214c-1.635-.405-2.569-2.836-2.597-2.916l-.001-.001-.002.001c-.028.08-.96 2.511-2.593 2.916l2.589 3.214.001.016.005-.009.004.009.001-.016zm-2.031-8.055s-2.199-4.022-4.667-4.022c-1.585 0-2.51 1.303-2.51 2.719 0 1.531 1.489 3.026 2.823 3.026 0 0 .313-3.322 4.354-1.723m8.371 1.723c1.334 0 2.826-1.495 2.826-3.026 0-1.416-.927-2.719-2.511-2.719-2.471 0-4.669 4.022-4.669 4.022 4.039-1.599 4.354 1.723 4.354 1.723m-3.478-7.215c0-4.243-2.877-6.014-2.877-6.014s-2.866 1.771-2.866 6.014c0 2.27 1.764 4.934 2.861 6.34h.019c1.098-1.406 2.863-4.07 2.863-6.34m-25.388 70.049c-2.578-1.288-5.133-2.719-7.193-4.647-1.007-.98-1.915-2.039-2.621-3.251-.378-.604-.633-1.216-.912-1.824l-.382-1.091c-.048-.154-.17-.441-.169-.48l-.132-.509c-.243-.825-.385-1.701-.499-2.59l-2.461-1.993c-.239 1.708-.291 3.471.118 5.27l.133.633c.083.342.12.417.193.634l.4 1.11c.36.812.726 1.625 1.178 2.336.883 1.455 1.964 2.793 3.232 3.873 2.554 2.134 5.421 3.495 8.147 4.625 2.734 1.142 5.373 2.1 7.768 3.221a25.974 25.974 0 0 1 2.946 1.589c.052-.409.198-.806.496-1.115 0 0-1.476-1.294-3.062-2.179-2.388-1.335-4.603-2.32-7.18-3.612m28.173-25.501v-5.718c-2.477 1.206-4.343 1.989-5.599 2.345a14.262 14.262 0 0 1-3.909.533c-2.727 0-4.967-.749-6.709-2.261-1.742-1.526-2.621-3.45-2.621-5.769 0-2.313.894-4.227 2.657-5.718 1.774-1.496 4.056-2.252 6.835-2.252 2.849 0 5.871.899 9.045 2.69v-9.047h-5.54v1.267a21.437 21.437 0 0 0-3.963-.369c-4.702 0-8.508 1.321-11.41 3.942-2.913 2.633-4.371 5.831-4.371 9.602 0 3.766 1.379 6.939 4.15 9.511 2.75 2.569 6.472 3.86 11.122 3.86 3.584-.003 7.034-.881 10.313-2.616m-5.48 12.755c1.244.219 2.544.354 3.967.354 4.699 0 8.494-1.312 11.404-3.933 2.919-2.631 4.376-5.837 4.376-9.601 0-3.765-1.386-6.933-4.142-9.511-2.772-2.571-6.47-3.857-11.133-3.857-3.597 0-7.031.876-10.313 2.613v5.712c2.476-1.197 4.347-1.986 5.595-2.339 1.261-.37 2.561-.53 3.912-.53 2.728 0 4.973.748 6.714 2.266 1.749 1.516 2.623 3.444 2.623 5.762 0 2.318-.897 4.217-2.667 5.715-1.773 1.497-4.052 2.247-6.84 2.247-2.847 0-5.856-.894-9.023-2.681v9.035h5.529v-1.252zm41.201-42.244s-3.301 1.554-9.386.886c-2.602-.287-5.883-1.367-8.412-2.804-2.121-1.202-7.207-4.972-12.242-4.972-3.822 0-7.121 2.644-9.378 7.028l.478.434s3.78-4.553 10.332-4.553c3.214 0 5.797.601 9.186 2.389 3.094 1.63 5.054 4.211 9.805 4.755 5.017.573 8.349-1.866 9.85-2.732l-.233-.431zm-82.912.43c1.506.866 4.837 3.305 9.853 2.732 4.751-.544 6.711-3.125 9.805-4.755 3.39-1.788 5.974-2.389 9.185-2.389 6.554 0 10.331 4.553 10.331 4.553l.482-.434c-2.26-4.384-5.559-7.028-9.379-7.028-5.037 0-10.121 3.77-12.24 4.972-2.531 1.437-5.814 2.518-8.413 2.804-6.086.668-9.387-.886-9.387-.886l-.237.431zm84.348 2.079l-.282-.477c-2.532 1.462-8.196 5.964-9.659 11.679-1.536 5.996-.36 11.41.558 15.146l1.158-.921c-.701-3.957-.81-8.596 1.067-14.455 2.129-6.651 5.541-9.766 7.158-10.972m-8.499 38.09c-.117.9-.257 1.79-.5 2.628l-.128.507c.001.038-.12.325-.162.48l-.373 1.096c-.273.608-.523 1.229-.897 1.84-.691 1.22-1.597 2.292-2.593 3.294-2.04 1.966-4.595 3.448-7.172 4.752-2.575 1.316-4.588 2.221-6.972 3.538-1.354.745-3.34 2.084-3.34 2.084.356.37.534.856.538 1.348a37.593 37.593 0 0 1 3.014-1.6c2.375-1.135 5-2.11 7.731-3.275 2.723-1.144 5.589-2.554 8.127-4.732 1.256-1.099 2.335-2.448 3.206-3.913.446-.714.806-1.536 1.159-2.353l.387-1.112c.073-.218.105-.293.191-.633l.13-.632c.403-1.811.35-3.586.113-5.304l-2.459 1.987zm-69.866-27.118c1.877 5.859 1.768 10.498 1.067 14.455l1.158.921c.918-3.736 2.094-9.15.558-15.146-1.463-5.715-7.128-10.217-9.657-11.679l-.283.477c1.617 1.206 5.028 4.321 7.157 10.972m35.477 55.436a6.764 6.764 0 1 1 0-13.529 6.765 6.765 0 1 1 0 13.529m10.336-8.498c-.641-.664-1.063-1.956-.931-2.865l.107-.763a1.744 1.744 0 0 0-1.42-1.941l-.746-.135c-.909-.155-2.001-.949-2.436-1.771l-.361-.671c-.427-.815-1.454-1.146-2.284-.743l-.688.336c-.828.405-2.181.405-3.006 0l-.691-.336c-.824-.402-1.859-.072-2.283.743l-.361.671c-.433.822-1.527 1.616-2.431 1.771l-.758.135a1.745 1.745 0 0 0-1.411 1.941l.102.763c.139.909-.284 2.201-.927 2.865l-.531.545a1.743 1.743 0 0 0 0 2.398l.531.555c.643.66 1.066 1.952.927 2.857l-.102.755a1.756 1.756 0 0 0 1.411 1.949l.758.128c.904.167 1.998.957 2.431 1.772l.361.676a1.755 1.755 0 0 0 2.283.749l.691-.344c.825-.401 2.177-.401 3.006 0l.688.344a1.755 1.755 0 0 0 2.284-.749l.361-.676c.435-.815 1.527-1.605 2.436-1.772l.746-.128c.91-.165 1.548-1.036 1.42-1.949l-.107-.755c-.132-.905.289-2.197.931-2.857l.535-.555a1.755 1.755 0 0 0 0-2.398l-.535-.545zm-10.339-1.135a2.866 2.866 0 1 0 0 5.734 2.866 2.866 0 1 0 0-5.734m5.577 13.376l-.412.765c-.483.919-1.652 1.306-2.595.853l-.786-.392c-.275-.133-.61-.216-.96-.272l2.994 9.083 2.317-3.595 3.936.836-2.844-8.84c-.688.393-1.33.962-1.65 1.562m-7.996 1.619c-.935.453-2.111.066-2.598-.853l-.411-.765c-.303-.572-.904-1.114-1.552-1.506l-2.945 8.863 3.951-.842 2.318 3.595 3.019-9.158c-.365.053-.712.135-.998.275l-.784.391zm38.447-40.063a106.29 106.29 0 0 1-.907-3.63c-.066-.28-.138-.561-.195-.839l-.669.507-27.925 22.356c.588.542 1.337.984 2.013 1.096l.852.154a1.986 1.986 0 0 1 1.611 2.211l-.121.867c-.047.314-.018.67.044 1.033l25.351-20.545.583-.494c-.059-.28-.132-.547-.192-.826l.012-.011a78.585 78.585 0 0 0-.457-1.879m-45.078 19.644l.859-.154c.675-.113 1.421-.554 2.009-1.096l-27.866-22.356-.732-.471c-.043.199-.098.405-.14.605-.28 1.267-.6 2.539-.949 3.831a77.38 77.38 0 0 0-.473 1.91l.014.012c-.059.254-.126.496-.181.754l.575.531 25.356 20.547c.06-.364.086-.721.038-1.036l-.118-.867c-.146-1.035.584-2.028 1.608-2.21m98.114 118.159c.156.434.233.911.233 1.441 0 .503-.086.984-.257 1.448a3.5 3.5 0 0 1-.74 1.192 4.144 4.144 0 0 1-1.355.91 4.027 4.027 0 0 1-1.58.333 3.77 3.77 0 0 1-1.421-.269c-.463-.187-.887-.495-1.283-.922a3.906 3.906 0 0 1-.841-1.407l1.421-.975c.042.071.08.15.117.233.03.083.06.146.079.2a.882.882 0 0 0 .078.149c.346.596.866.975 1.565 1.141.183.022.319.033.414.033.329 0 .641-.072.932-.217.286-.144.511-.35.678-.616.24-.395.364-.829.364-1.293 0-.464-.139-.837-.409-1.114a4.033 4.033 0 0 0-.813-.647c-.294-.17-.661-.361-1.121-.568-.451-.211-.82-.391-1.099-.54a5.655 5.655 0 0 1-1.197-.84c-.344-.315-.57-.665-.67-1.049a2.994 2.994 0 0 1-.14-.909c0-.7.205-1.297.602-1.794.707-.869 1.588-1.306 2.656-1.306.319 0 .598.031.834.09.274.069.563.191.873.374.304.175.578.388.811.631.241.246.419.49.539.737-.147.106-.388.264-.724.486-.343.218-.596.382-.749.499-.445-.656-.959-.985-1.55-.985-.133 0-.267.02-.391.058a1.024 1.024 0 0 0-.584.34 1.123 1.123 0 0 0-.308.607c0 .661.234 1.116.701 1.365.04.02.391.173 1.044.466.653.291 1.167.543 1.543.755.376.21.721.479 1.034.798.31.312.551.702.714 1.165m-14.592-4.03c-.08-.334-.231-.607-.457-.805a2.16 2.16 0 0 0-.76-.44 4.002 4.002 0 0 0-.885-.177 13.627 13.627 0 0 0-1.114-.042h-.501l-.07.059v3.497a30.307 30.307 0 0 1 1.282.019 5.36 5.36 0 0 0 1.206-.129c.354-.087.648-.252.873-.493a1.646 1.646 0 0 0 .426-1.489m3.899 9.051c0 .047-.06.071-.174.071h-1.958c-.027 0-1.321-1.744-3.881-5.239h-1.673v5.168l-.059.071h-1.665l-.039-.11v-12.189l.137-.017h2.196c.894 0 1.662.051 2.3.158.64.105 1.213.346 1.722.721.505.373.873.941 1.1 1.695.096.363.143.698.143 1.013 0 .376-.06.749-.181 1.113a3.142 3.142 0 0 1-.527.973c-.18.227-.375.403-.6.534-.218.13-.505.268-.858.414v.085a94.082 94.082 0 0 1 1.939 2.638c.384.541.737 1.047 1.077 1.508.331.467.665.931 1.001 1.393m-14.011.014c0 .049-.027.074-.077.074h-7.837a.104.104 0 0 1-.06-.036l-.037-.038v-12.176c.007-.016.015-.027.022-.042.008-.014.03-.024.061-.024h7.549c.049 0 .075.02.075.066v1.617c0 .049-.026.075-.075.075h-5.731l-.142.018v2.949h4.342c.036 0 .057.018.057.052v1.621c0 .051-.03.077-.089.077h-4.257c-.038 0-.053.028-.053.089v3.994h6.19c.037 0 .061.018.061.057v1.627zm-14.313-6.117c0-.61-.117-1.177-.354-1.712a4.395 4.395 0 0 0-.986-1.396 4.619 4.619 0 0 0-3.193-1.279H438.7v8.799h2.707c.591 0 1.158-.111 1.707-.346a4.353 4.353 0 0 0 1.436-.958c.412-.409.727-.881.948-1.402a4.336 4.336 0 0 0 .332-1.706m1.731 0c0 .836-.16 1.631-.483 2.388-.32.76-.76 1.414-1.317 1.974a6.23 6.23 0 0 1-1.986 1.324 6.025 6.025 0 0 1-2.406.488h-4.363c-.045 0-.066-.018-.066-.057v-12.176c0-.056.029-.082.082-.082h4.292c.462 0 .883.033 1.266.105.384.067.73.168 1.046.304.315.132.653.308 1.003.526.59.373 1.102.82 1.546 1.351a5.972 5.972 0 0 1 1.022 1.779 5.98 5.98 0 0 1 .364 2.076m-15.743 6.103c0 .047-.023.071-.076.071h-1.616c-.046 0-.068-.018-.068-.057v-12.176c0-.056.031-.082.082-.082h1.625c.035 0 .053.017.053.051v12.193zm-9.666-9.051c-.075-.334-.225-.607-.45-.805a2.218 2.218 0 0 0-.761-.44 3.99 3.99 0 0 0-.89-.177 13.442 13.442 0 0 0-1.109-.042h-.505l-.072.059v3.497a30.351 30.351 0 0 1 1.283.019c.451 0 .852-.047 1.21-.129.354-.087.643-.252.869-.493.309-.331.463-.718.463-1.161 0-.074-.011-.182-.038-.328m3.903 9.051c0 .047-.06.071-.173.071h-1.962c-.022 0-1.317-1.744-3.881-5.239h-1.674v5.168l-.056.071h-1.667l-.033-.11v-12.189l.135-.017h2.197c.891 0 1.657.051 2.296.158a3.926 3.926 0 0 1 1.724.721c.507.373.871.941 1.097 1.695.099.363.147.698.147 1.013 0 .376-.059.749-.18 1.113a3.146 3.146 0 0 1-.529.973 2.158 2.158 0 0 1-.599.534 7.1 7.1 0 0 1-.86.414v.085c.168.217.44.577.811 1.078.371.499.749 1.022 1.129 1.56.385.541.74 1.047 1.075 1.508.334.467.666.931 1.003 1.393m-22.082-9.414c-.03.051-.06.076-.082.076-.038 0-.181-.064-.427-.195a7.267 7.267 0 0 0-1.137-.572 7.556 7.556 0 0 0-1.31-.402 6.548 6.548 0 0 0-1.315-.143c-.458 0-.907.06-1.353.176a3.805 3.805 0 0 0-1.19.533 4.427 4.427 0 0 0-1.574 1.696 4.804 4.804 0 0 0-.546 2.272c0 .199.004.35.015.454.074.802.406 1.555 1.004 2.261.595.708 1.294 1.207 2.095 1.496a4.4 4.4 0 0 0 1.531.264c.493 0 .981-.072 1.467-.219a7.698 7.698 0 0 0 1.376-.564c.432-.229.892-.511 1.383-.839.018 0 .027.068.027.199v1.851c-.563.433-1.226.763-1.985.995a7.69 7.69 0 0 1-2.314.353 6.84 6.84 0 0 1-1.484-.162 6.343 6.343 0 0 1-1.383-.458 6.265 6.265 0 0 1-1.753-1.279 6.308 6.308 0 0 1-1.248-1.81 5.914 5.914 0 0 1-.541-2.061 5.084 5.084 0 0 1-.024-.582c0-1.086.241-2.091.722-3.015.483-.922 1.182-1.714 2.095-2.377.996-.703 2.242-1.057 3.735-1.057.751 0 1.488.101 2.196.298.71.199 1.346.489 1.902.864l.102.148.016 1.799zm-15.335 9.414c0 .047-.027.071-.074.071h-1.622c-.04 0-.064-.018-.064-.057v-12.176c0-.056.027-.082.083-.082h1.622c.033 0 .055.017.055.051v12.193zm-6.894 0c0 .033-.027.053-.072.053h-1.612c-.051 0-.072-.02-.072-.053v-5.804h-6.453l-.071.073v5.731c0 .047-.027.071-.072.071h-1.607c-.055 0-.08-.024-.08-.071V392.92c0-.048.024-.07.08-.07h1.621c.038 0 .058.022.058.07v.084h.018v4.381c.007.027.013.054.037.098.016.037.053.059.105.067h6.325l.039-.057v-4.588a.118.118 0 0 1 .014-.036c.007-.014.025-.019.057-.019h1.646a.03.03 0 0 1 .027.019c.008.01.01.022.01.036v12.208zm-14.971-9.414c-.029.051-.06.076-.083.076-.037 0-.18-.064-.429-.195a7.2 7.2 0 0 0-1.135-.572 7.572 7.572 0 0 0-1.309-.402 6.557 6.557 0 0 0-1.316-.143c-.458 0-.907.06-1.353.176a3.794 3.794 0 0 0-1.19.533 4.446 4.446 0 0 0-1.575 1.696 4.793 4.793 0 0 0-.547 2.272c0 .199.005.35.016.454.074.802.406 1.555 1.004 2.261.594.708 1.293 1.207 2.095 1.496.481.177.993.264 1.53.264.494 0 .982-.072 1.468-.219a7.729 7.729 0 0 0 1.376-.564c.433-.229.892-.511 1.383-.839.019 0 .026.068.026.199v1.851c-.563.433-1.227.763-1.985.995a7.691 7.691 0 0 1-2.312.353c-.493 0-.989-.052-1.486-.162a6.343 6.343 0 0 1-1.383-.458 6.25 6.25 0 0 1-1.753-1.279 6.331 6.331 0 0 1-1.249-1.81 5.912 5.912 0 0 1-.54-2.061 5.084 5.084 0 0 1-.024-.582c0-1.086.242-2.091.722-3.015.482-.922 1.182-1.714 2.095-2.377.996-.703 2.241-1.057 3.735-1.057.752 0 1.488.101 2.196.298a6.552 6.552 0 0 1 1.903.864l.101.148.019 1.799zm-25.82.363c-.076-.334-.225-.607-.451-.805a2.182 2.182 0 0 0-.759-.44 3.998 3.998 0 0 0-.891-.177 13.45 13.45 0 0 0-1.11-.042h-.503l-.072.059v3.497a30.351 30.351 0 0 1 1.282.019c.45 0 .854-.047 1.209-.129.354-.087.644-.252.87-.493.309-.331.463-.718.463-1.161a1.811 1.811 0 0 0-.038-.328m3.905 9.051c0 .047-.061.071-.176.071h-1.962c-.021 0-1.316-1.744-3.879-5.239h-1.674v5.168l-.057.071h-1.665l-.035-.11v-12.189l.135-.017h2.196c.892 0 1.658.051 2.297.158a3.907 3.907 0 0 1 1.723.721c.507.373.873.941 1.098 1.695.097.363.146.698.146 1.013 0 .376-.059.749-.179 1.113a3.151 3.151 0 0 1-.531.973 2.11 2.11 0 0 1-.597.534c-.222.13-.508.268-.861.414v.085c.169.217.438.577.81 1.078.374.499.75 1.022 1.129 1.56.385.541.742 1.047 1.075 1.508.336.467.667.931 1.007 1.393m-16.251-7.973a3.756 3.756 0 0 0-.563-.989 4.615 4.615 0 0 0-.876-.868 3.723 3.723 0 0 0-1.03-.564 4.484 4.484 0 0 0-3.325.067c-.55.234-1.03.565-1.43.997-.797.87-1.191 1.937-1.191 3.206 0 .603.103 1.185.319 1.757.248.66.666 1.241 1.255 1.75.587.513 1.227.835 1.913.977.251.049.526.072.818.072.579 0 1.121-.104 1.633-.317a4.815 4.815 0 0 0 1.414-.894c.296-.278.548-.601.763-.97.215-.367.372-.755.474-1.164.1-.411.152-.82.152-1.228 0-.639-.103-1.249-.326-1.832m1.524 4.855a6.32 6.32 0 0 1-.97 1.4 6.226 6.226 0 0 1-1.334 1.102 6.278 6.278 0 0 1-3.235.951c-.629 0-1.23-.086-1.806-.263a6.449 6.449 0 0 1-1.651-.775 6.188 6.188 0 0 1-1.384-1.207 5.888 5.888 0 0 1-.961-1.541c-.348-.805-.52-1.689-.52-2.651 0-.815.135-1.597.406-2.347a6.057 6.057 0 0 1 1.157-1.982c.648-.71 1.377-1.25 2.196-1.61a6.456 6.456 0 0 1 2.634-.539c.364 0 .725.025 1.082.081.779.115 1.525.422 2.241.913a7.367 7.367 0 0 1 1.85 1.848c.335.462.587 1 .753 1.616a7.23 7.23 0 0 1 .249 1.892c-.001 1.167-.234 2.209-.707 3.112m-15.502-7.441c0 .048-.023.07-.074.07h-5.732l-.142.037v2.927h4.347c.033 0 .053.018.053.063v1.621c0 .049-.031.072-.091.072h-4.181a.439.439 0 0 0-.075.044c-.038.028-.052.054-.052.084v5.641c0 .047-.024.071-.077.071h-1.601c-.053 0-.083-.018-.083-.057V392.92c0-.035.029-.051.083-.051h7.552c.052 0 .074.017.074.051v1.634zm197.741-58.853c4.061-.905 6.853 2.828 7.088 7.973 0 1.124-.529 1.852-1.85 2.225l-11.345 3.176a21.304 21.304 0 0 1-.153-2.482c.001-7.83 4.215-10.431 6.26-10.892m20.215 26.844c-2.846 1.147-5.797 1.494-9.11 1.494-9.636 0-14.778-5.579-16.595-11.912l23.108-5.441c0-11.313-8.17-14.483-13.8-14.483-9.788 0-19.727 7.338-19.727 19.727 0 12.257 10.073 19.727 19.444 19.727 8.312 0 13.868-3.771 16.861-8.954l-.181-.158zm-67.62-15.951c0-7.541 4.777-11.061 7.977-11.425 5.024-.563 8.583 3.22 8.932 9.825v20.053c-.553.105-1.2.163-1.971.163-9.493.001-14.938-9.805-14.938-18.616m26.906 13.483v-50.134l-.26-.133-14.14 5.987.204.509c2.852 0 4.2 2.346 4.2 6.026v11.369a16.5 16.5 0 0 0-6.834-1.497c-9.781 0-19.727 7.338-19.727 19.727 0 11.303 8.058 19.727 17.941 19.727 3.635 0 7.03-1.338 9.37-3.042l.794 2.886.364.156 13.529-2.441.048-.625c-3.801-.717-5.489-2.993-5.489-8.515m-42.045-27.76c-4.12 0-7.232 3.372-9.01 7.504l-.442-7.652-.258-.134-13.636 6.51.203.507c2.423-.402 3.978 1.591 4.2 5.869v19.239c-.194 3.646-2.076 6.009-4.088 6.199v.808h19.479v-.832c-2.572-.378-5.1-2.523-5.389-6.328v-19.275c.655-1.831 1.447-3.278 2.925-3.278 1.924 0 4.083 2.303 6.499 2.303 2.422 0 5.105-2.439 5.105-5.759 0-3.32-2.629-5.681-5.588-5.681m-43.264 33.661c-4.062 0-6.349-3.031-6.349-5.998 0-5.117 4.286-8.885 9.961-10.591v15.401c0 .038.004.081.004.117-.895.622-2.049 1.071-3.616 1.071m19.658-1.96c-2.898 2.252-6.093 1.14-6.093-2.289V345.63c0-7.59-5.337-13.563-14.042-13.563-9.932 0-15.337 8.316-15.337 8.316l.668.403c3.281-2.466 6.554-3.453 9.47-3.453 7.217 0 9.289 4.759 9.289 9.376v.411c-8.785 1.788-20.89 5.067-20.89 15.037 0 4.671 4.536 9.49 10.727 9.49 3.927 0 7.98-1.837 10.498-4.577.787 2.585 2.95 4.577 6.266 4.577 4.073 0 7.766-3.614 9.78-7.305l-.336-.324zm-48.747.021c-12.406 0-17.369-9.253-17.369-17.445 0-7.541 4.227-10.826 7.422-11.178 5.724-.62 10.301 3.028 12.252 12.184h.791l4.456-11.647s-6.538-3.75-14.844-3.75c-9.784 0-19.723 7.338-19.723 19.727 0 12.257 10.075 19.727 19.444 19.727 8.605 0 13.863-3.771 16.862-8.954l-.178-.158c-2.854 1.147-5.8 1.494-9.113 1.494m-81.238-2.814c-16.984 0-23.584-14.03-23.584-25.248 0-9.242 5.592-14.092 9.967-14.591 8.636-.998 14.067 7.841 18.241 18.636h.81l4.911-17.258s-8.952-5.137-20.329-5.137c-13.399 0-27.016 10.049-27.016 27.012 0 16.788 13.796 27.018 26.635 27.018 12.204 0 19.941-7.186 21.666-13.436l-.148-.128c-2.612 1.69-6.613 3.132-11.153 3.132m34.391 6.99c-4.674.749-8.627-6.134-10.066-15.166-1.442-9.032.19-16.801 4.86-17.544 4.669-.748 8.632 6.134 10.068 15.17 1.436 9.032-.192 16.796-4.862 17.54m-2.602-36.149c-10.936 0-19.26 8.861-19.26 19.793 0 10.938 8.323 19.798 19.26 19.798 10.929 0 19.254-8.86 19.254-19.798 0-10.932-8.325-19.793-19.254-19.793"/></svg>