<svg xmlns="http://www.w3.org/2000/svg" width="792" height="612" viewBox="0 0 792 612"><g opacity=".5"><path d="M410.053 200.973c0 2.481-.945 4.51-2.844 6.107-1.883 1.597-4.317 2.401-7.293 2.401-3.031 0-6.246-.96-9.633-2.866v4.836l-.008 1.395.008 3.411h5.905l-.007-1.342c1.34.232 2.727.389 4.239.389 5.006-.009 9.059-1.403 12.159-4.208 3.114-2.805 4.665-6.215 4.658-10.23 0-1.997-.363-3.836-1.087-5.517h-8.409c1.515 1.528 2.312 3.391 2.312 5.624zm24.165 165.475c2.937 2.735 6.889 4.122 11.864 4.115 3.828 0 7.486-.93 10.989-2.783v-6.107c-2.642 1.286-4.625 2.131-5.968 2.503a15.1 15.1 0 0 1-4.161.575c-2.914 0-5.301-.799-7.161-2.42-1.859-1.619-2.805-3.665-2.796-6.152-.009-2.47.952-4.503 2.835-6.098 1.883-1.597 4.316-2.394 7.299-2.394 3.022 0 6.238.961 9.626 2.866l.007-4.843v-4.805l-5.905.009v1.34a24.568 24.568 0 0 0-4.24-.387c-4.997-.009-9.051 1.395-12.151 4.199-3.107 2.805-4.656 6.214-4.656 10.23.001 4.021 1.466 7.408 4.418 10.152zm33.648-120.401c-2.946-2.752-6.897-4.116-11.872-4.116-3.828 0-7.493.93-10.988 2.783l-.009 6.107c2.651-1.293 4.642-2.131 5.975-2.511 1.334-.387 2.713-.565 4.162-.572 2.913 0 5.301.804 7.16 2.425 1.868 1.612 2.798 3.658 2.798 6.137 0 2.481-.945 4.51-2.844 6.107-1.883 1.597-4.317 2.401-7.293 2.401-3.031 0-6.246-.96-9.633-2.866v4.836l-.008 1.395.008 3.411h5.905l-.007-1.342c1.34.232 2.727.389 4.239.389 5.006-.009 9.059-1.403 12.159-4.208 3.114-2.805 4.665-6.215 4.658-10.23 0-4.024-1.466-7.41-4.41-10.146z"/><path d="M391.043 204.097c3.828 0 7.486-.93 10.989-2.783v-5.967h-.295c-2.487 1.201-4.384 2.006-5.672 2.363a15.1 15.1 0 0 1-4.161.575c-2.914 0-5.301-.799-7.161-2.42-.186-.162-.322-.348-.49-.518h-8.404c.735 1.707 1.843 3.253 3.33 4.635 2.938 2.735 6.889 4.122 11.864 4.115zm76.576 173.463c3.114-2.805 4.665-6.215 4.658-10.23 0-4.021-1.466-7.408-4.41-10.144-2.946-2.752-6.897-4.116-11.872-4.116-3.828 0-7.493.93-10.988 2.783l-.009 6.107c2.651-1.293 4.642-2.131 5.975-2.511 1.334-.387 2.713-.565 4.162-.572 2.913 0 5.301.804 7.16 2.425 1.868 1.612 2.798 3.658 2.798 6.137 0 2.481-.945 4.51-2.844 6.107-1.883 1.597-4.317 2.401-7.293 2.401-3.031 0-6.246-.96-9.633-2.866v4.836l-.008 1.395.008 3.411h5.905l-.007-1.342c1.34.232 2.727.389 4.239.389 5.005-.01 9.058-1.405 12.159-4.21z"/><path d="M389.958 195.347v.147c.11-.054.202-.095.31-.147h-.31zm22.622 126.4c3.114-2.805 4.665-6.215 4.658-10.23 0-4.021-1.466-7.408-4.41-10.144-2.946-2.752-6.897-4.116-11.872-4.116-3.828 0-7.493.93-10.989 2.783l-.009 6.107c2.65-1.293 4.643-2.131 5.975-2.511 1.333-.387 2.713-.565 4.162-.572 2.914 0 5.301.804 7.16 2.425 1.868 1.612 2.798 3.658 2.798 6.137 0 2.481-.945 4.51-2.844 6.107-1.883 1.597-4.317 2.401-7.293 2.401-3.031 0-6.246-.96-9.633-2.866v4.836l-.008 1.395.008 3.411h5.905l-.007-1.342c1.34.232 2.727.389 4.239.389 5.006-.01 9.06-1.405 12.16-4.21z"/><path d="M392.082 291.873c3.022 0 6.237.96 9.626 2.866l.007-4.843v-4.805l-5.905.009v1.341a24.568 24.568 0 0 0-4.24-.387c-4.997-.009-9.051 1.395-12.151 4.2-3.107 2.805-4.656 6.214-4.656 10.23 0 4.021 1.464 7.408 4.417 10.152 2.937 2.735 6.889 4.122 11.864 4.115 3.828 0 7.486-.93 10.989-2.783v-6.107c-2.642 1.286-4.625 2.131-5.968 2.503a15.1 15.1 0 0 1-4.161.575c-2.914 0-5.301-.799-7.161-2.42-1.86-1.619-2.805-3.665-2.796-6.153-.009-2.471.952-4.503 2.835-6.098 1.884-1.597 4.317-2.395 7.3-2.395zm55.039-55.326c3.022 0 6.238.96 9.626 2.866l.007-4.843v-4.805l-5.905.009v1.341a24.568 24.568 0 0 0-4.24-.387c-4.997-.009-9.051 1.395-12.151 4.2-3.107 2.805-4.656 6.214-4.656 10.23 0 4.021 1.464 7.408 4.417 10.152 2.937 2.735 6.889 4.122 11.864 4.115 3.828 0 7.486-.93 10.989-2.783v-6.107c-2.642 1.286-4.625 2.131-5.968 2.503a15.1 15.1 0 0 1-4.161.575c-2.914 0-5.301-.799-7.161-2.42-1.859-1.619-2.805-3.665-2.796-6.153-.009-2.471.952-4.503 2.835-6.098 1.884-1.598 4.317-2.395 7.3-2.395zm53.506 69.6c2.635-1.295 4.625-2.131 5.966-2.518.019-.005.04-.007.06-.012v-5.788a23.755 23.755 0 0 0-6.034 2.212l.008 6.106zm.317-89.892h5.708v-7.323c-1.847-.466-3.748-1.212-5.717-2.317l.009 4.834-.009 1.396.009 3.41zm.753-12.158c1.687 0 3.336-.212 4.956-.571v-5.802c-1.312.376-2.67.562-4.096.562-2.915 0-5.292-.808-7.154-2.428-.185-.159-.318-.342-.484-.51h-8.416c.735 1.707 1.843 3.253 3.329 4.635 2.938 2.743 6.898 4.105 11.865 4.114zm4.896 210.185c.019-.005.04-.007.06-.012v-5.788a23.755 23.755 0 0 0-6.034 2.212l.008 5.96h.309c2.474-1.206 4.372-2.002 5.657-2.372zm-5.658-218.935h-.309v.147l.309-.147zm.009 131.56h5.708v-7.323c-1.847-.466-3.748-1.212-5.717-2.317l.009 4.834-.009 1.396.009 3.41z"/><path d="M485.416 300.483c0 4.021 1.464 7.408 4.417 10.152 2.937 2.744 6.898 4.106 11.864 4.115 1.687 0 3.336-.212 4.956-.571v-5.802c-1.312.376-2.67.561-4.096.561-2.915 0-5.292-.808-7.154-2.428-1.866-1.61-2.796-3.657-2.796-6.144-.009-2.471.937-4.503 2.829-6.098 1.899-1.597 4.332-2.394 7.3-2.394 1.273 0 2.583.206 3.918.542v-7.324h-.183v1.349c-1.34-.231-2.72-.387-4.23-.387-5.014 0-9.068 1.403-12.168 4.2-3.108 2.804-4.666 6.212-4.657 10.229zM400.955 407.91c-3.828 0-7.493.93-10.989 2.783l-.008 5.96h.309c2.488-1.203 4.388-2 5.665-2.364 1.333-.387 2.713-.565 4.162-.572 2.914 0 5.301.804 7.16 2.425.185.16.319.343.486.512h8.409c-.735-1.706-1.84-3.249-3.323-4.626-2.944-2.754-6.896-4.118-11.871-4.118zm-109.567 8.743v-.148c-.111.054-.204.096-.312.148h.312zm-.317-16.095v-4.814h-5.723v7.324c1.849.465 3.752 1.212 5.723 2.324v-4.834zm-.761 7.352c-1.687 0-3.338.211-4.963.571v5.788a15.407 15.407 0 0 1 4.105-.555c2.914 0 5.301.806 7.159 2.425.184.16.318.344.484.513h8.406c-.732-1.705-1.835-3.25-3.318-4.635-2.952-2.742-6.904-4.114-11.873-4.107zm16.275-96.393c0-4.021-1.456-7.401-4.402-10.152-2.952-2.744-6.904-4.115-11.873-4.108-1.687 0-3.338.211-4.963.571v5.788a15.407 15.407 0 0 1 4.105-.555c2.914 0 5.301.806 7.159 2.425 1.853 1.614 2.798 3.66 2.791 6.147.007 2.472-.938 4.502-2.828 6.098-1.892 1.597-4.325 2.394-7.3 2.401-1.274-.003-2.588-.212-3.927-.549v7.323h.199l-.009-1.347c1.334.239 2.728.387 4.232.394 5.006.008 9.058-1.402 12.166-4.206 3.109-2.804 4.658-6.215 4.65-10.23zm186.022 99.501c-.009-2.47.937-4.503 2.829-6.098 1.899-1.597 4.332-2.394 7.3-2.394 1.273 0 2.583.206 3.918.542v-7.324h-.183v1.349c-1.34-.231-2.72-.387-4.23-.387-5.014 0-9.068 1.403-12.168 4.2-3.107 2.805-4.665 6.214-4.656 10.23 0 1.996.363 3.835 1.087 5.517h8.416c-1.516-1.529-2.313-3.393-2.313-5.635z"/><path d="M381.947 411.018c-.009-2.47.952-4.503 2.835-6.098 1.883-1.597 4.316-2.394 7.299-2.394 3.022 0 6.237.96 9.626 2.866l.007-4.843v-4.805l-5.905.009v1.341a24.568 24.568 0 0 0-4.24-.387c-4.997-.009-9.051 1.395-12.151 4.2-3.107 2.805-4.656 6.214-4.656 10.23 0 1.996.363 3.835 1.087 5.517h8.404c-1.508-1.535-2.314-3.397-2.306-5.636zm20.085 5.635v-.14c-.105.051-.192.09-.295.14h.295zM291.071 289.905v-4.814h-5.723v7.324c1.849.465 3.752 1.212 5.723 2.324v-4.834zm32.782 76.543c2.937 2.735 6.889 4.122 11.864 4.115 3.828 0 7.486-.93 10.989-2.783v-6.107c-2.642 1.286-4.625 2.131-5.968 2.503a15.1 15.1 0 0 1-4.161.575c-2.914 0-5.301-.799-7.161-2.42-1.86-1.619-2.805-3.665-2.796-6.152-.009-2.47.952-4.503 2.835-6.098 1.883-1.597 4.316-2.394 7.299-2.394 3.022 0 6.238.961 9.626 2.866l.007-4.843v-4.805l-5.905.009v1.34a24.577 24.577 0 0 0-4.24-.387c-4.997-.009-9.051 1.395-12.151 4.199-3.107 2.805-4.656 6.214-4.656 10.23.001 4.021 1.466 7.408 4.418 10.152zm12.902-129.901c3.022 0 6.238.96 9.626 2.866l.007-4.843v-4.805l-5.905.009v1.341a24.577 24.577 0 0 0-4.24-.387c-4.997-.009-9.051 1.395-12.151 4.2-3.107 2.805-4.656 6.214-4.656 10.23 0 4.021 1.464 7.408 4.417 10.152 2.937 2.735 6.889 4.122 11.864 4.115 3.828 0 7.486-.93 10.989-2.783v-6.107c-2.642 1.286-4.625 2.131-5.968 2.503a15.1 15.1 0 0 1-4.161.575c-2.914 0-5.301-.799-7.161-2.42-1.86-1.619-2.805-3.665-2.796-6.153-.009-2.471.952-4.503 2.835-6.098 1.885-1.598 4.317-2.395 7.3-2.395z"/><path d="M357.253 377.56c3.114-2.805 4.665-6.215 4.658-10.23 0-4.021-1.466-7.408-4.41-10.144-2.946-2.752-6.897-4.116-11.872-4.116-3.828 0-7.493.93-10.989 2.783l-.009 6.107c2.65-1.293 4.642-2.131 5.975-2.511 1.333-.387 2.713-.565 4.162-.572 2.914 0 5.301.804 7.16 2.425 1.868 1.612 2.798 3.658 2.798 6.137 0 2.481-.945 4.51-2.844 6.107-1.883 1.597-4.317 2.401-7.293 2.401-3.031 0-6.246-.96-9.633-2.866v4.836l-.008 1.395.008 3.411h5.905l-.007-1.342c1.34.232 2.727.389 4.239.389 5.007-.01 9.06-1.405 12.16-4.21zm.248-131.513c-2.946-2.752-6.897-4.116-11.872-4.116-3.828 0-7.493.93-10.989 2.783l-.009 6.107c2.65-1.293 4.642-2.131 5.975-2.511 1.333-.387 2.713-.565 4.162-.572 2.914 0 5.301.804 7.16 2.425 1.868 1.612 2.798 3.658 2.798 6.137 0 2.481-.945 4.51-2.844 6.107-1.883 1.597-4.317 2.401-7.293 2.401-3.031 0-6.246-.96-9.633-2.866v4.836l-.008 1.395.008 3.411h5.905l-.007-1.342c1.34.232 2.727.389 4.239.389 5.006-.009 9.059-1.403 12.159-4.208 3.114-2.805 4.665-6.215 4.658-10.23.001-4.024-1.465-7.41-4.409-10.146zm-66.113 59.805c-2.65 1.295-4.634 2.14-5.975 2.511-.022.006-.044.008-.066.014v5.802a23.706 23.706 0 0 0 6.034-2.212l.007-6.115zm0-110.505h-.312c-2.486 1.204-4.378 2.007-5.662 2.363-.022.006-.044.008-.066.014v5.802a23.706 23.706 0 0 0 6.034-2.212l.006-5.967zm8.014 5.635c.007 2.472-.938 4.502-2.828 6.098-1.892 1.597-4.325 2.394-7.3 2.401-1.274-.003-2.588-.212-3.927-.549v7.323h.199l-.009-1.347c1.334.239 2.728.387 4.232.394 5.006.008 9.058-1.402 12.166-4.206 3.108-2.805 4.658-6.215 4.649-10.23 0-1.997-.361-3.835-1.083-5.517h-8.406c1.506 1.529 2.313 3.392 2.307 5.633z"/></g></svg>