<?xml version="1.0" encoding="utf-8"?>
<!-- Generator: Adobe Illustrator 16.0.0, SVG Export Plug-In . SVG Version: 6.00 Build 0)  -->
<!DOCTYPE svg PUBLIC "-//W3C//DTD SVG 1.1//EN" "http://www.w3.org/Graphics/SVG/1.1/DTD/svg11.dtd">
<svg version="1.1" id="Capa_1" xmlns="http://www.w3.org/2000/svg" xmlns:xlink="http://www.w3.org/1999/xlink" x="0px" y="0px"
	 width="273.531px" height="198.448px" viewBox="259.235 207 273.531 198.448" enable-background="new 259.235 207 273.531 198.448"
	 xml:space="preserve">
<g>
	<path fill="#FFFFFF" d="M395.87,226.561l2.593-3.214c-1.635-0.405-2.569-2.836-2.597-2.916l-0.001-0.001l-0.002,0.001
		c-0.028,0.08-0.96,2.511-2.594,2.916l2.59,3.214l0.001,0.016l0.005-0.009l0.004,0.009L395.87,226.561z M393.839,218.506
		c0,0-2.199-4.022-4.667-4.022c-1.585,0-2.51,1.303-2.51,2.719c0,1.531,1.489,3.026,2.823,3.026
		C389.485,220.229,389.798,216.907,393.839,218.506 M402.21,220.229c1.334,0,2.826-1.495,2.826-3.026
		c0-1.416-0.927-2.719-2.511-2.719c-2.472,0-4.669,4.022-4.669,4.022C401.895,216.907,402.21,220.229,402.21,220.229
		 M398.732,213.014c0-4.243-2.877-6.014-2.877-6.014s-2.866,1.771-2.866,6.014c0,2.27,1.764,4.934,2.86,6.34h0.02
		C396.967,217.948,398.732,215.284,398.732,213.014 M373.344,283.063c-2.578-1.288-5.133-2.719-7.192-4.647
		c-1.008-0.98-1.915-2.039-2.621-3.251c-0.378-0.604-0.633-1.216-0.912-1.824l-0.382-1.091c-0.048-0.154-0.17-0.441-0.169-0.48
		l-0.133-0.509c-0.242-0.825-0.385-1.701-0.499-2.59l-2.461-1.993c-0.238,1.708-0.291,3.471,0.118,5.27l0.133,0.633
		c0.083,0.342,0.12,0.417,0.193,0.634l0.4,1.11c0.359,0.812,0.726,1.625,1.178,2.336c0.883,1.455,1.964,2.793,3.232,3.873
		c2.554,2.134,5.421,3.495,8.146,4.625c2.734,1.142,5.373,2.1,7.769,3.221c1.049,0.477,2.023,1.017,2.945,1.589
		c0.052-0.409,0.198-0.806,0.496-1.115c0,0-1.476-1.294-3.062-2.179C378.136,285.34,375.921,284.355,373.344,283.063
		 M401.517,257.562v-5.718c-2.477,1.206-4.343,1.989-5.599,2.345c-1.251,0.354-2.549,0.533-3.909,0.533
		c-2.727,0-4.967-0.749-6.709-2.261c-1.742-1.526-2.621-3.45-2.621-5.769c0-2.313,0.895-4.227,2.657-5.718
		c1.774-1.496,4.056-2.252,6.835-2.252c2.849,0,5.871,0.899,9.045,2.69v-4.539v-1.301v-3.207h-5.54v1.267
		c-1.24-0.232-2.554-0.369-3.963-0.369c-4.702,0-8.508,1.321-11.41,3.942c-2.913,2.633-4.371,5.831-4.371,9.602
		c0,3.766,1.379,6.939,4.15,9.511c2.75,2.569,6.472,3.86,11.122,3.86C394.788,260.175,398.238,259.297,401.517,257.562
		 M396.037,270.317c1.244,0.219,2.544,0.354,3.967,0.354c4.699,0,8.494-1.312,11.404-3.933c2.919-2.631,4.376-5.837,4.376-9.601
		c0-3.765-1.386-6.933-4.143-9.511c-2.771-2.571-6.47-3.857-11.133-3.857c-3.597,0-7.031,0.876-10.312,2.613v5.712
		c2.476-1.197,4.347-1.986,5.595-2.339c1.261-0.37,2.561-0.53,3.912-0.53c2.728,0,4.973,0.748,6.714,2.266
		c1.749,1.516,2.623,3.444,2.623,5.762s-0.897,4.217-2.667,5.715c-1.773,1.497-4.052,2.247-6.84,2.247
		c-2.848,0-5.856-0.894-9.023-2.681v4.533v1.297v3.205h5.529v-1.252H396.037z M437.238,228.073c0,0-3.301,1.554-9.387,0.886
		c-2.602-0.287-5.883-1.367-8.411-2.804c-2.121-1.202-7.207-4.972-12.242-4.972c-3.822,0-7.121,2.644-9.378,7.028l0.478,0.434
		c0,0,3.78-4.553,10.332-4.553c3.214,0,5.797,0.601,9.187,2.389c3.094,1.63,5.054,4.211,9.805,4.755
		c5.017,0.573,8.349-1.866,9.85-2.732L437.238,228.073z M354.326,228.503c1.506,0.866,4.837,3.305,9.853,2.732
		c4.751-0.544,6.711-3.125,9.806-4.755c3.39-1.788,5.974-2.389,9.185-2.389c6.554,0,10.331,4.553,10.331,4.553l0.482-0.434
		c-2.261-4.384-5.56-7.028-9.38-7.028c-5.036,0-10.12,3.77-12.239,4.972c-2.531,1.437-5.814,2.518-8.413,2.804
		c-6.086,0.668-9.388-0.886-9.388-0.886L354.326,228.503z M438.674,230.582l-0.282-0.477c-2.531,1.462-8.195,5.964-9.658,11.679
		c-1.536,5.996-0.36,11.41,0.558,15.146l1.158-0.921c-0.701-3.957-0.811-8.596,1.066-14.455
		C433.645,234.903,437.057,231.788,438.674,230.582 M430.175,268.672c-0.117,0.9-0.257,1.79-0.5,2.628l-0.128,0.507
		c0.001,0.038-0.12,0.325-0.162,0.48l-0.373,1.096c-0.272,0.608-0.522,1.229-0.896,1.84c-0.691,1.22-1.598,2.292-2.593,3.294
		c-2.04,1.966-4.596,3.448-7.173,4.752c-2.574,1.316-4.588,2.221-6.972,3.538c-1.354,0.745-3.34,2.084-3.34,2.084
		c0.356,0.37,0.534,0.856,0.538,1.348c0.953-0.562,1.95-1.097,3.014-1.6c2.375-1.135,5-2.11,7.731-3.275
		c2.723-1.145,5.589-2.554,8.127-4.732c1.256-1.099,2.335-2.448,3.206-3.913c0.445-0.714,0.806-1.536,1.159-2.353l0.387-1.112
		c0.073-0.218,0.104-0.293,0.19-0.633l0.131-0.632c0.402-1.811,0.35-3.586,0.112-5.304L430.175,268.672z M360.309,241.554
		c1.877,5.859,1.769,10.498,1.067,14.455l1.158,0.921c0.918-3.736,2.094-9.15,0.558-15.146c-1.463-5.715-7.128-10.217-9.657-11.679
		l-0.282,0.477C354.769,231.788,358.18,234.903,360.309,241.554 M395.786,296.99c-3.737,0-6.768-3.025-6.768-6.766
		c0-3.734,3.03-6.763,6.768-6.763c3.739,0,6.767,3.03,6.767,6.763C402.554,293.965,399.525,296.99,395.786,296.99 M406.122,288.492
		c-0.641-0.664-1.063-1.956-0.931-2.865l0.106-0.763c0.128-0.91-0.51-1.783-1.42-1.941l-0.746-0.135
		c-0.909-0.155-2.001-0.949-2.436-1.771l-0.361-0.671c-0.427-0.815-1.454-1.146-2.284-0.743l-0.688,0.336
		c-0.828,0.405-2.182,0.405-3.006,0l-0.691-0.336c-0.824-0.402-1.859-0.072-2.283,0.743l-0.36,0.671
		c-0.434,0.822-1.527,1.616-2.432,1.771l-0.758,0.135c-0.9,0.158-1.54,1.031-1.411,1.941l0.103,0.763
		c0.139,0.909-0.284,2.201-0.928,2.865l-0.53,0.545c-0.638,0.66-0.638,1.738,0,2.398l0.53,0.555c0.644,0.66,1.066,1.952,0.928,2.857
		l-0.103,0.755c-0.128,0.914,0.511,1.784,1.411,1.949l0.758,0.128c0.904,0.167,1.998,0.957,2.432,1.772l0.36,0.676
		c0.425,0.806,1.459,1.147,2.283,0.749l0.691-0.344c0.824-0.401,2.177-0.401,3.006,0l0.688,0.344
		c0.831,0.398,1.857,0.057,2.284-0.749l0.361-0.676c0.435-0.815,1.526-1.605,2.436-1.772l0.746-0.128
		c0.91-0.165,1.548-1.036,1.42-1.949l-0.106-0.755c-0.133-0.905,0.289-2.197,0.931-2.857l0.535-0.555
		c0.631-0.66,0.631-1.738,0-2.398L406.122,288.492z M395.783,287.357c-1.584,0-2.868,1.285-2.868,2.867
		c0,1.585,1.284,2.867,2.868,2.867c1.593,0,2.874-1.282,2.874-2.867C398.658,288.641,397.377,287.357,395.783,287.357
		 M401.36,300.733l-0.412,0.765c-0.483,0.919-1.652,1.306-2.596,0.853l-0.785-0.392c-0.275-0.133-0.61-0.216-0.96-0.272l2.993,9.083
		l2.317-3.595l3.936,0.836l-2.844-8.84C402.322,299.564,401.68,300.133,401.36,300.733 M393.364,302.352
		c-0.936,0.453-2.111,0.066-2.599-0.853l-0.41-0.765c-0.304-0.572-0.904-1.114-1.553-1.506l-2.944,8.863l3.95-0.842l2.318,3.595
		l3.02-9.158c-0.365,0.053-0.713,0.135-0.998,0.275L393.364,302.352z M431.811,262.289c-0.327-1.226-0.631-2.431-0.906-3.63
		c-0.066-0.28-0.139-0.561-0.195-0.839l-0.669,0.507l-27.925,22.356c0.588,0.542,1.337,0.984,2.013,1.096l0.853,0.154
		c1.033,0.182,1.757,1.175,1.61,2.211l-0.121,0.867c-0.047,0.314-0.018,0.67,0.044,1.033l25.352-20.545l0.583-0.494
		c-0.06-0.28-0.132-0.547-0.192-0.826l0.012-0.011C432.123,263.531,431.966,262.9,431.811,262.289 M386.733,281.933l0.858-0.154
		c0.675-0.113,1.421-0.554,2.009-1.096l-27.865-22.356l-0.732-0.471c-0.043,0.199-0.098,0.405-0.14,0.605
		c-0.28,1.267-0.601,2.539-0.949,3.831c-0.161,0.621-0.322,1.26-0.473,1.91l0.014,0.012c-0.059,0.254-0.126,0.496-0.181,0.754
		l0.574,0.531l25.356,20.547c0.06-0.364,0.086-0.721,0.038-1.036l-0.118-0.867C384.979,283.108,385.709,282.115,386.733,281.933
		 M484.847,400.092c0.156,0.435,0.233,0.911,0.233,1.441c0,0.503-0.086,0.983-0.257,1.448c-0.173,0.462-0.423,0.856-0.74,1.191
		c-0.385,0.388-0.835,0.692-1.354,0.91c-0.519,0.219-1.045,0.333-1.58,0.333c-0.502,0-0.978-0.09-1.422-0.27
		c-0.463-0.187-0.887-0.494-1.282-0.922c-0.391-0.428-0.672-0.896-0.841-1.406l1.421-0.976c0.042,0.071,0.079,0.15,0.116,0.233
		c0.03,0.083,0.061,0.146,0.079,0.2c0.021,0.052,0.047,0.101,0.078,0.148c0.347,0.597,0.866,0.976,1.565,1.142
		c0.183,0.021,0.318,0.032,0.414,0.032c0.329,0,0.641-0.071,0.932-0.217c0.286-0.144,0.511-0.35,0.678-0.616
		c0.24-0.395,0.364-0.829,0.364-1.293s-0.139-0.837-0.409-1.113c-0.255-0.26-0.525-0.478-0.812-0.647
		c-0.294-0.17-0.661-0.361-1.121-0.568c-0.451-0.211-0.82-0.391-1.1-0.54c-0.459-0.246-0.856-0.522-1.196-0.84
		c-0.345-0.314-0.57-0.665-0.67-1.049c-0.095-0.296-0.141-0.601-0.141-0.909c0-0.7,0.205-1.297,0.603-1.794
		c0.707-0.869,1.588-1.306,2.656-1.306c0.318,0,0.598,0.03,0.834,0.09c0.273,0.069,0.562,0.19,0.873,0.374
		c0.304,0.175,0.577,0.389,0.811,0.631c0.241,0.246,0.419,0.49,0.539,0.737c-0.147,0.106-0.388,0.264-0.725,0.485
		c-0.343,0.219-0.596,0.383-0.748,0.5c-0.445-0.656-0.959-0.985-1.551-0.985c-0.133,0-0.267,0.021-0.391,0.058
		c-0.222,0.042-0.415,0.152-0.584,0.34c-0.173,0.187-0.274,0.385-0.309,0.607c0,0.661,0.234,1.116,0.701,1.365
		c0.04,0.02,0.392,0.173,1.044,0.466c0.653,0.291,1.167,0.543,1.543,0.755c0.376,0.21,0.722,0.479,1.034,0.798
		C484.443,399.239,484.684,399.629,484.847,400.092 M470.255,396.062c-0.08-0.334-0.23-0.607-0.457-0.806
		c-0.226-0.2-0.477-0.346-0.76-0.44c-0.284-0.092-0.579-0.149-0.885-0.176c-0.315-0.026-0.687-0.043-1.114-0.043h-0.501l-0.07,0.06
		v3.497c0.263,0,0.488,0,0.677,0.003c0.184,0.003,0.386,0.008,0.605,0.016c0.447,0,0.853-0.047,1.206-0.129
		c0.354-0.087,0.647-0.252,0.873-0.493c0.309-0.331,0.462-0.718,0.462-1.161C470.292,396.316,470.281,396.208,470.255,396.062
		 M474.154,405.113c0,0.047-0.061,0.07-0.174,0.07h-1.959c-0.026,0-1.32-1.743-3.881-5.238h-1.673v5.168l-0.059,0.07h-1.665
		l-0.039-0.109v-12.189l0.137-0.017h2.196c0.894,0,1.662,0.051,2.3,0.157c0.64,0.105,1.213,0.347,1.722,0.722
		c0.505,0.373,0.873,0.94,1.101,1.694c0.096,0.363,0.143,0.698,0.143,1.014c0,0.376-0.06,0.749-0.181,1.113
		s-0.301,0.688-0.527,0.973c-0.18,0.227-0.375,0.403-0.6,0.534c-0.218,0.13-0.505,0.268-0.858,0.414v0.085
		c0.17,0.217,0.44,0.577,0.812,1.078c0.37,0.499,0.746,1.021,1.128,1.56c0.384,0.541,0.736,1.047,1.077,1.508
		C473.484,404.188,473.818,404.651,474.154,405.113 M460.143,405.127c0,0.049-0.026,0.074-0.076,0.074h-7.838
		c-0.022-0.005-0.045-0.018-0.06-0.036c-0.019-0.021-0.03-0.031-0.037-0.038v-12.176c0.007-0.016,0.016-0.027,0.022-0.042
		c0.008-0.015,0.029-0.024,0.061-0.024h7.549c0.05,0,0.075,0.021,0.075,0.066v1.617c0,0.049-0.025,0.074-0.075,0.074h-5.73
		l-0.143,0.019v2.949h4.343c0.036,0,0.057,0.018,0.057,0.052v1.621c0,0.051-0.03,0.077-0.089,0.077h-4.257
		c-0.038,0-0.054,0.027-0.054,0.089v3.994h6.19c0.037,0,0.062,0.018,0.062,0.057V405.127L460.143,405.127z M445.83,399.01
		c0-0.609-0.117-1.177-0.354-1.712c-0.238-0.53-0.564-0.996-0.985-1.396c-0.42-0.401-0.903-0.715-1.452-0.94
		c-0.552-0.226-1.13-0.339-1.741-0.339H438.7v8.799h2.707c0.591,0,1.158-0.111,1.707-0.346c0.55-0.229,1.026-0.547,1.436-0.958
		c0.412-0.409,0.728-0.881,0.948-1.402C445.72,400.19,445.83,399.623,445.83,399.01 M447.561,399.01
		c0,0.836-0.159,1.631-0.482,2.389c-0.32,0.76-0.76,1.414-1.317,1.974c-0.56,0.559-1.221,0.998-1.985,1.324
		c-0.76,0.327-1.564,0.487-2.406,0.487h-4.363c-0.045,0-0.065-0.018-0.065-0.057v-12.176c0-0.057,0.028-0.082,0.081-0.082h4.293
		c0.462,0,0.883,0.033,1.266,0.105c0.384,0.066,0.729,0.168,1.046,0.303c0.315,0.133,0.653,0.309,1.003,0.527
		c0.59,0.372,1.102,0.819,1.546,1.351c0.436,0.526,0.783,1.119,1.022,1.778C447.439,397.595,447.561,398.284,447.561,399.01
		 M431.818,405.113c0,0.047-0.023,0.07-0.076,0.07h-1.616c-0.046,0-0.068-0.018-0.068-0.057v-12.176
		c0-0.057,0.031-0.082,0.082-0.082h1.625c0.035,0,0.054,0.017,0.054,0.051V405.113z M422.152,396.062
		c-0.075-0.334-0.226-0.607-0.45-0.806c-0.229-0.2-0.482-0.346-0.761-0.44c-0.284-0.092-0.579-0.149-0.891-0.176
		s-0.681-0.043-1.108-0.043h-0.506l-0.071,0.06v3.497c0.267,0,0.493,0,0.682,0.003c0.179,0.003,0.383,0.008,0.602,0.016
		c0.45,0,0.852-0.047,1.21-0.129c0.354-0.087,0.643-0.252,0.868-0.493c0.31-0.331,0.464-0.718,0.464-1.161
		C422.19,396.316,422.179,396.208,422.152,396.062 M426.055,405.113c0,0.047-0.06,0.07-0.173,0.07h-1.962
		c-0.021,0-1.316-1.743-3.881-5.238h-1.674v5.168l-0.057,0.07h-1.667l-0.032-0.109v-12.189l0.135-0.017h2.197
		c0.891,0,1.656,0.051,2.296,0.157c0.643,0.105,1.215,0.347,1.724,0.722c0.507,0.373,0.871,0.94,1.097,1.694
		c0.1,0.363,0.147,0.698,0.147,1.014c0,0.376-0.059,0.749-0.18,1.113c-0.123,0.364-0.302,0.688-0.529,0.973
		c-0.178,0.227-0.378,0.403-0.6,0.534c-0.222,0.13-0.507,0.268-0.859,0.414v0.085c0.168,0.217,0.439,0.577,0.811,1.078
		c0.371,0.499,0.749,1.021,1.129,1.56c0.386,0.541,0.74,1.047,1.075,1.508C425.386,404.188,425.718,404.651,426.055,405.113
		 M403.973,395.699c-0.029,0.051-0.06,0.076-0.082,0.076c-0.038,0-0.181-0.064-0.427-0.195c-0.339-0.211-0.716-0.403-1.137-0.572
		c-0.415-0.17-0.851-0.305-1.311-0.402c-0.459-0.094-0.895-0.143-1.314-0.143c-0.458,0-0.907,0.061-1.354,0.176
		c-0.444,0.116-0.844,0.297-1.189,0.533c-0.686,0.438-1.211,1.002-1.574,1.696c-0.366,0.696-0.546,1.453-0.546,2.271
		c0,0.199,0.004,0.351,0.015,0.454c0.074,0.803,0.406,1.556,1.004,2.262c0.596,0.707,1.294,1.207,2.096,1.495
		c0.479,0.178,0.993,0.265,1.53,0.265c0.493,0,0.981-0.072,1.468-0.219c0.484-0.147,0.943-0.336,1.376-0.564
		c0.432-0.229,0.892-0.511,1.383-0.839c0.018,0,0.027,0.067,0.027,0.199v1.851c-0.563,0.434-1.227,0.763-1.985,0.995
		c-0.759,0.238-1.531,0.353-2.314,0.353c-0.491,0-0.987-0.052-1.483-0.162c-0.496-0.104-0.959-0.259-1.383-0.457
		c-0.648-0.316-1.229-0.741-1.754-1.279c-0.526-0.538-0.943-1.143-1.247-1.811c-0.31-0.669-0.488-1.351-0.541-2.061
		c-0.017-0.128-0.024-0.318-0.024-0.582c0-1.086,0.241-2.091,0.722-3.015c0.483-0.923,1.183-1.714,2.096-2.378
		c0.996-0.703,2.241-1.057,3.734-1.057c0.751,0,1.488,0.102,2.196,0.299c0.71,0.198,1.346,0.488,1.902,0.863l0.102,0.148
		L403.973,395.699z M388.638,405.113c0,0.047-0.026,0.07-0.073,0.07h-1.622c-0.04,0-0.064-0.018-0.064-0.057v-12.176
		c0-0.057,0.027-0.082,0.083-0.082h1.622c0.033,0,0.055,0.017,0.055,0.051V405.113z M381.744,405.113
		c0,0.033-0.027,0.053-0.072,0.053h-1.612c-0.051,0-0.071-0.02-0.071-0.053v-5.805h-6.453l-0.071,0.073v5.731
		c0,0.047-0.027,0.07-0.072,0.07h-1.606c-0.055,0-0.08-0.023-0.08-0.07V392.92c0-0.048,0.023-0.07,0.08-0.07h1.621
		c0.038,0,0.058,0.022,0.058,0.07v0.084h0.019v4.381c0.007,0.027,0.013,0.055,0.036,0.099c0.017,0.036,0.054,0.059,0.105,0.066
		h6.325l0.039-0.057v-4.588c0.003-0.015,0.008-0.026,0.014-0.036c0.007-0.014,0.025-0.02,0.057-0.02h1.646
		c0.01,0,0.021,0.006,0.027,0.02c0.008,0.01,0.01,0.021,0.01,0.036v12.208H381.744z M366.773,395.699
		c-0.029,0.051-0.061,0.076-0.083,0.076c-0.037,0-0.181-0.064-0.43-0.195c-0.338-0.211-0.714-0.403-1.135-0.572
		c-0.415-0.17-0.85-0.305-1.309-0.402c-0.46-0.094-0.896-0.143-1.316-0.143c-0.458,0-0.907,0.061-1.353,0.176
		c-0.447,0.116-0.844,0.297-1.19,0.533c-0.684,0.438-1.211,1.002-1.575,1.696c-0.367,0.696-0.547,1.453-0.547,2.271
		c0,0.199,0.005,0.351,0.016,0.454c0.074,0.803,0.406,1.556,1.005,2.262c0.594,0.707,1.293,1.207,2.095,1.495
		c0.48,0.178,0.993,0.265,1.53,0.265c0.493,0,0.981-0.072,1.468-0.219c0.484-0.147,0.942-0.336,1.376-0.564
		c0.433-0.229,0.892-0.511,1.383-0.839c0.019,0,0.026,0.067,0.026,0.199v1.851c-0.563,0.434-1.228,0.763-1.985,0.995
		c-0.76,0.238-1.531,0.353-2.312,0.353c-0.492,0-0.988-0.052-1.485-0.162c-0.496-0.104-0.959-0.259-1.383-0.457
		c-0.648-0.316-1.23-0.741-1.753-1.279c-0.527-0.538-0.944-1.143-1.249-1.811c-0.309-0.669-0.488-1.351-0.54-2.061
		c-0.017-0.128-0.024-0.318-0.024-0.582c0-1.086,0.242-2.091,0.722-3.015c0.482-0.923,1.183-1.714,2.096-2.378
		c0.996-0.703,2.24-1.057,3.734-1.057c0.752,0,1.488,0.102,2.196,0.299c0.711,0.198,1.345,0.488,1.903,0.863l0.101,0.148
		L366.773,395.699z M340.953,396.062c-0.076-0.334-0.226-0.607-0.451-0.806c-0.224-0.2-0.48-0.346-0.759-0.44
		c-0.285-0.092-0.579-0.149-0.892-0.176c-0.312-0.026-0.681-0.043-1.109-0.043h-0.503l-0.072,0.06v3.497
		c0.267,0,0.492,0,0.681,0.003c0.181,0.003,0.383,0.008,0.602,0.016c0.45,0,0.854-0.047,1.209-0.129
		c0.354-0.087,0.644-0.252,0.87-0.493c0.309-0.331,0.463-0.718,0.463-1.161C340.992,396.316,340.98,396.208,340.953,396.062
		 M344.858,405.113c0,0.047-0.062,0.07-0.177,0.07h-1.962c-0.021,0-1.315-1.743-3.879-5.238h-1.674v5.168l-0.057,0.07h-1.665
		l-0.035-0.109v-12.189l0.135-0.017h2.196c0.892,0,1.658,0.051,2.297,0.157c0.644,0.105,1.216,0.347,1.723,0.722
		c0.507,0.373,0.873,0.94,1.099,1.694c0.097,0.363,0.146,0.698,0.146,1.014c0,0.376-0.059,0.749-0.179,1.113
		c-0.125,0.364-0.301,0.688-0.531,0.973c-0.176,0.227-0.375,0.403-0.597,0.534c-0.223,0.13-0.508,0.268-0.861,0.414v0.085
		c0.169,0.217,0.438,0.577,0.811,1.078c0.374,0.499,0.75,1.021,1.129,1.56c0.385,0.541,0.741,1.047,1.074,1.508
		C344.188,404.188,344.518,404.651,344.858,405.113 M328.607,397.14c-0.12-0.327-0.309-0.657-0.563-0.988
		c-0.256-0.329-0.545-0.62-0.876-0.868c-0.327-0.248-0.669-0.439-1.03-0.564c-0.513-0.187-1.042-0.285-1.584-0.285
		c-0.604,0-1.184,0.12-1.741,0.353c-0.55,0.233-1.029,0.565-1.43,0.997c-0.797,0.87-1.19,1.937-1.19,3.206
		c0,0.603,0.103,1.185,0.318,1.757c0.248,0.66,0.666,1.241,1.255,1.75c0.587,0.513,1.228,0.835,1.913,0.977
		c0.251,0.049,0.526,0.072,0.818,0.072c0.579,0,1.121-0.104,1.633-0.317c0.511-0.206,0.982-0.506,1.414-0.894
		c0.296-0.278,0.548-0.602,0.763-0.97c0.215-0.367,0.372-0.755,0.475-1.164c0.1-0.411,0.151-0.82,0.151-1.229
		C328.933,398.333,328.83,397.723,328.607,397.14 M330.131,401.995c-0.256,0.505-0.579,0.97-0.97,1.399
		c-0.393,0.43-0.838,0.797-1.334,1.103c-0.502,0.307-1.018,0.537-1.551,0.695c-0.534,0.158-1.095,0.245-1.685,0.256
		c-0.629,0-1.229-0.086-1.806-0.264c-0.576-0.177-1.128-0.432-1.651-0.774c-0.525-0.337-0.987-0.741-1.384-1.207
		c-0.398-0.464-0.722-0.978-0.961-1.541c-0.348-0.805-0.521-1.689-0.521-2.651c0-0.814,0.136-1.597,0.406-2.347
		c0.271-0.752,0.654-1.411,1.157-1.982c0.648-0.709,1.377-1.25,2.196-1.609c0.819-0.362,1.701-0.539,2.634-0.539
		c0.364,0,0.725,0.025,1.082,0.081c0.779,0.114,1.525,0.422,2.241,0.913c0.719,0.496,1.335,1.113,1.85,1.848
		c0.335,0.462,0.587,1,0.753,1.616s0.249,1.245,0.249,1.892C330.837,400.05,330.604,401.092,330.131,401.995 M314.629,394.554
		c0,0.048-0.022,0.07-0.074,0.07h-5.731l-0.143,0.037v2.927h4.348c0.032,0,0.053,0.018,0.053,0.063v1.62
		c0,0.05-0.031,0.072-0.091,0.072h-4.182c-0.019,0.008-0.045,0.023-0.074,0.044c-0.038,0.028-0.053,0.055-0.053,0.084v5.642
		c0,0.047-0.023,0.07-0.076,0.07h-1.602c-0.053,0-0.083-0.018-0.083-0.057V392.92c0-0.035,0.029-0.051,0.083-0.051h7.552
		c0.053,0,0.074,0.017,0.074,0.051L314.629,394.554L314.629,394.554z M512.37,335.701c4.061-0.905,6.853,2.828,7.088,7.973
		c0,1.124-0.529,1.852-1.85,2.225l-11.346,3.177c-0.098-0.833-0.152-1.665-0.152-2.482
		C506.111,338.764,510.325,336.162,512.37,335.701 M532.585,362.545c-2.846,1.146-5.797,1.494-9.11,1.494
		c-9.636,0-14.777-5.579-16.595-11.912l23.108-5.441c0-11.312-8.17-14.482-13.8-14.482c-9.788,0-19.728,7.338-19.728,19.727
		c0,12.258,10.073,19.728,19.444,19.728c8.312,0,13.868-3.771,16.86-8.954L532.585,362.545z M464.965,346.594
		c0-7.541,4.777-11.061,7.978-11.425c5.023-0.563,8.583,3.22,8.932,9.825v20.053c-0.553,0.105-1.2,0.163-1.971,0.163
		C470.41,365.211,464.965,355.405,464.965,346.594 M491.871,360.077v-50.134l-0.26-0.133l-14.141,5.986l0.204,0.51
		c2.853,0,4.2,2.346,4.2,6.025v11.369c-1.913-0.866-4.214-1.497-6.834-1.497c-9.781,0-19.727,7.338-19.727,19.728
		c0,11.303,8.058,19.727,17.94,19.727c3.635,0,7.03-1.338,9.37-3.042l0.794,2.886l0.364,0.156l13.529-2.441l0.048-0.625
		C493.559,367.875,491.871,365.6,491.871,360.077 M449.826,332.316c-4.12,0-7.232,3.373-9.01,7.504l-0.442-7.651l-0.258-0.134
		l-13.636,6.51l0.202,0.507c2.424-0.401,3.979,1.591,4.2,5.869v19.239c-0.193,3.646-2.076,6.009-4.088,6.199v0.808h19.479v-0.832
		c-2.572-0.378-5.101-2.522-5.39-6.328v-19.274c0.655-1.832,1.447-3.278,2.925-3.278c1.925,0,4.083,2.303,6.499,2.303
		c2.422,0,5.105-2.438,5.105-5.759S452.785,332.316,449.826,332.316 M406.562,365.979c-4.062,0-6.35-3.031-6.35-5.998
		c0-5.117,4.286-8.886,9.961-10.592v15.401c0,0.038,0.004,0.081,0.004,0.117C409.283,365.529,408.129,365.979,406.562,365.979
		 M426.22,364.018c-2.897,2.252-6.093,1.141-6.093-2.289V345.63c0-7.59-5.337-13.563-14.042-13.563
		c-9.932,0-15.337,8.316-15.337,8.316l0.668,0.403c3.281-2.466,6.554-3.453,9.47-3.453c7.218,0,9.289,4.759,9.289,9.376v0.411
		c-8.785,1.788-20.89,5.067-20.89,15.037c0,4.671,4.536,9.489,10.727,9.489c3.928,0,7.98-1.836,10.498-4.576
		c0.787,2.585,2.95,4.576,6.267,4.576c4.072,0,7.766-3.613,9.779-7.305L426.22,364.018z M377.473,364.039
		c-12.405,0-17.369-9.253-17.369-17.445c0-7.541,4.228-10.826,7.423-11.178c5.724-0.62,10.301,3.027,12.252,12.184h0.791
		l4.456-11.646c0,0-6.538-3.75-14.845-3.75c-9.783,0-19.723,7.338-19.723,19.727c0,12.258,10.075,19.728,19.444,19.728
		c8.604,0,13.862-3.771,16.861-8.954l-0.178-0.158C383.732,363.691,380.786,364.039,377.473,364.039 M296.235,361.225
		c-16.984,0-23.584-14.029-23.584-25.248c0-9.242,5.592-14.092,9.967-14.591c8.636-0.997,14.067,7.841,18.241,18.636h0.81
		l4.911-17.258c0,0-8.952-5.137-20.329-5.137c-13.399,0-27.016,10.049-27.016,27.012c0,16.788,13.796,27.019,26.635,27.019
		c12.204,0,19.941-7.187,21.666-13.437l-0.148-0.128C304.776,359.783,300.775,361.225,296.235,361.225 M330.626,368.215
		c-4.674,0.749-8.627-6.134-10.066-15.166c-1.441-9.031,0.19-16.801,4.86-17.544c4.669-0.748,8.632,6.134,10.068,15.17
		C336.924,359.707,335.296,367.471,330.626,368.215 M328.024,332.066c-10.937,0-19.261,8.86-19.261,19.793
		c0,10.938,8.323,19.798,19.261,19.798c10.929,0,19.254-8.86,19.254-19.798C347.278,340.927,338.953,332.066,328.024,332.066"/>
</g>
</svg>
