<?xml version="1.0" encoding="utf-8"?>
<!-- Generator: Adobe Illustrator 16.0.0, SVG Export Plug-In . SVG Version: 6.00 Build 0)  -->
<!DOCTYPE svg PUBLIC "-//W3C//DTD SVG 1.1//EN" "http://www.w3.org/Graphics/SVG/1.1/DTD/svg11.dtd">
<svg version="1.1" id="Capa_1" xmlns="http://www.w3.org/2000/svg" xmlns:xlink="http://www.w3.org/1999/xlink" x="0px" y="0px"
	 width="221.308px" height="221.308px" viewBox="285.347 195.347 221.308 221.308"
	 enable-background="new 285.347 195.347 221.308 221.308" xml:space="preserve">
<g opacity="0.5">
	<path d="M410.053,200.973c0,2.481-0.944,4.51-2.844,6.107c-1.883,1.597-4.317,2.4-7.293,2.4c-3.031,0-6.246-0.96-9.633-2.865v4.836
		l-0.008,1.395l0.008,3.411h5.905l-0.008-1.342c1.341,0.231,2.728,0.389,4.239,0.389c5.006-0.009,9.06-1.403,12.159-4.208
		c3.114-2.805,4.665-6.215,4.658-10.229c0-1.997-0.363-3.836-1.087-5.518h-8.409C409.256,196.877,410.053,198.74,410.053,200.973z"
		/>
	<path d="M434.218,366.448c2.938,2.734,6.89,4.121,11.864,4.114c3.828,0,7.486-0.93,10.989-2.782v-6.107
		c-2.643,1.286-4.625,2.131-5.968,2.503c-1.332,0.38-2.721,0.575-4.161,0.575c-2.914,0-5.302-0.799-7.161-2.42
		c-1.859-1.619-2.806-3.665-2.796-6.152c-0.01-2.47,0.952-4.503,2.835-6.098c1.883-1.598,4.315-2.395,7.299-2.395
		c3.021,0,6.238,0.961,9.626,2.866l0.007-4.843v-1.386v-3.419l-5.905,0.009v1.34c-1.334-0.231-2.728-0.387-4.239-0.387
		c-4.997-0.01-9.052,1.395-12.151,4.198c-3.107,2.806-4.656,6.215-4.656,10.23C429.801,360.317,431.266,363.704,434.218,366.448z"/>
	<path d="M467.866,246.047c-2.946-2.752-6.897-4.116-11.872-4.116c-3.828,0-7.493,0.93-10.988,2.783l-0.009,6.106
		c2.651-1.293,4.642-2.131,5.975-2.511c1.334-0.387,2.713-0.564,4.162-0.572c2.913,0,5.301,0.805,7.16,2.426
		c1.868,1.611,2.798,3.657,2.798,6.137c0,2.481-0.945,4.51-2.844,6.107c-1.883,1.597-4.317,2.4-7.293,2.4
		c-3.031,0-6.246-0.96-9.633-2.866v4.836l-0.008,1.396l0.008,3.411h5.904l-0.007-1.342c1.34,0.231,2.728,0.389,4.239,0.389
		c5.006-0.009,9.059-1.403,12.159-4.208c3.114-2.805,4.665-6.215,4.658-10.23C472.277,252.169,470.81,248.783,467.866,246.047z"/>
	<path d="M391.043,204.097c3.828,0,7.486-0.93,10.989-2.783v-5.967h-0.295c-2.487,1.201-4.385,2.006-5.672,2.363
		c-1.332,0.38-2.721,0.575-4.161,0.575c-2.914,0-5.302-0.8-7.161-2.42c-0.187-0.162-0.322-0.349-0.49-0.519h-8.404
		c0.735,1.707,1.844,3.253,3.33,4.635C382.117,202.717,386.069,204.104,391.043,204.097z"/>
	<path d="M467.619,377.56c3.114-2.805,4.665-6.215,4.658-10.229c0-4.021-1.467-7.408-4.41-10.145
		c-2.946-2.752-6.897-4.116-11.872-4.116c-3.828,0-7.493,0.931-10.988,2.783l-0.009,6.107c2.65-1.293,4.642-2.131,5.975-2.511
		c1.334-0.388,2.713-0.565,4.162-0.572c2.913,0,5.301,0.804,7.16,2.425c1.868,1.612,2.798,3.658,2.798,6.137
		c0,2.481-0.944,4.511-2.844,6.107c-1.883,1.597-4.317,2.4-7.293,2.4c-3.031,0-6.246-0.96-9.633-2.865v4.836l-0.009,1.395
		l0.009,3.411h5.904l-0.007-1.342c1.34,0.231,2.728,0.389,4.239,0.389C460.465,381.76,464.518,380.365,467.619,377.56z"/>
	<path d="M389.958,195.347v0.147c0.11-0.055,0.202-0.096,0.31-0.147H389.958z"/>
	<path d="M412.58,321.747c3.114-2.806,4.665-6.215,4.658-10.23c0-4.021-1.467-7.408-4.41-10.144
		c-2.946-2.752-6.897-4.116-11.872-4.116c-3.828,0-7.493,0.93-10.989,2.783l-0.009,6.106c2.65-1.293,4.643-2.131,5.975-2.511
		c1.333-0.387,2.713-0.565,4.162-0.572c2.914,0,5.301,0.805,7.16,2.426c1.868,1.611,2.798,3.657,2.798,6.137
		c0,2.48-0.944,4.51-2.844,6.106c-1.883,1.598-4.317,2.401-7.293,2.401c-3.031,0-6.246-0.96-9.633-2.866v4.836l-0.008,1.396
		l0.008,3.411h5.904l-0.007-1.343c1.34,0.232,2.728,0.39,4.239,0.39C405.426,325.948,409.481,324.552,412.58,321.747z"/>
	<path d="M392.082,291.873c3.021,0,6.237,0.96,9.626,2.866l0.007-4.844v-1.386v-3.419l-5.905,0.009v1.341
		c-1.334-0.23-2.728-0.387-4.239-0.387c-4.997-0.009-9.052,1.396-12.151,4.2c-3.106,2.805-4.656,6.214-4.656,10.229
		c0,4.021,1.464,7.408,4.417,10.152c2.938,2.735,6.89,4.122,11.864,4.115c3.828,0,7.486-0.93,10.989-2.783v-6.106
		c-2.643,1.285-4.625,2.131-5.968,2.503c-1.332,0.38-2.721,0.574-4.161,0.574c-2.914,0-5.301-0.799-7.161-2.42
		c-1.86-1.619-2.805-3.665-2.796-6.152c-0.009-2.472,0.952-4.503,2.835-6.099C386.666,292.671,389.099,291.873,392.082,291.873z"/>
	<path d="M447.121,236.547c3.021,0,6.238,0.96,9.626,2.866l0.007-4.844v-1.386v-3.419l-5.905,0.009v1.342
		c-1.334-0.231-2.728-0.388-4.239-0.388c-4.997-0.009-9.052,1.396-12.151,4.2c-3.107,2.805-4.656,6.214-4.656,10.23
		c0,4.021,1.464,7.407,4.417,10.151c2.938,2.735,6.89,4.122,11.864,4.115c3.828,0,7.486-0.93,10.989-2.783v-6.106
		c-2.643,1.285-4.625,2.131-5.969,2.503c-1.331,0.38-2.72,0.575-4.16,0.575c-2.914,0-5.302-0.8-7.161-2.421
		c-1.859-1.618-2.806-3.665-2.796-6.152c-0.01-2.472,0.951-4.503,2.835-6.099C441.705,237.344,444.138,236.547,447.121,236.547z"/>
	<path d="M500.627,306.147c2.635-1.295,4.625-2.131,5.966-2.518c0.02-0.005,0.04-0.007,0.061-0.012v-5.788
		c-2.061,0.457-4.075,1.172-6.034,2.212L500.627,306.147z"/>
	<path d="M500.945,216.255h5.708v-7.323c-1.848-0.466-3.748-1.212-5.718-2.316l0.01,4.834l-0.01,1.396L500.945,216.255z"/>
	<path d="M501.698,204.097c1.687,0,3.336-0.212,4.956-0.571v-5.802c-1.312,0.376-2.67,0.562-4.097,0.562
		c-2.915,0-5.292-0.809-7.153-2.429c-0.186-0.158-0.318-0.342-0.484-0.51h-8.416c0.735,1.707,1.843,3.253,3.329,4.635
		C492.77,202.726,496.731,204.088,501.698,204.097z"/>
	<path d="M506.593,414.282c0.02-0.005,0.04-0.007,0.061-0.013v-5.787c-2.061,0.457-4.075,1.172-6.034,2.212l0.008,5.96h0.309
		C503.41,415.448,505.308,414.653,506.593,414.282z"/>
	<path d="M500.935,195.347h-0.309v0.147C500.738,195.441,500.828,195.399,500.935,195.347z"/>
	<path d="M500.945,326.907h5.708v-7.323c-1.848-0.466-3.748-1.212-5.718-2.317l0.01,4.834l-0.01,1.396L500.945,326.907z"/>
	<path d="M485.416,300.483c0,4.021,1.464,7.408,4.417,10.152c2.937,2.744,6.897,4.106,11.864,4.115c1.687,0,3.336-0.212,4.956-0.571
		v-5.802c-1.312,0.376-2.67,0.561-4.097,0.561c-2.915,0-5.292-0.808-7.153-2.428c-1.866-1.61-2.796-3.657-2.796-6.144
		c-0.01-2.472,0.937-4.504,2.828-6.099c1.899-1.597,4.332-2.394,7.301-2.394c1.272,0,2.583,0.206,3.918,0.542v-7.324h-0.184v1.349
		c-1.34-0.23-2.72-0.387-4.229-0.387c-5.015,0-9.068,1.403-12.168,4.2C486.965,293.058,485.407,296.466,485.416,300.483z"/>
	<path d="M400.955,407.91c-3.828,0-7.493,0.93-10.989,2.783l-0.008,5.96h0.309c2.488-1.203,4.389-2,5.665-2.364
		c1.333-0.387,2.713-0.565,4.162-0.572c2.914,0,5.301,0.805,7.16,2.425c0.186,0.16,0.319,0.344,0.486,0.513h8.409
		c-0.735-1.706-1.841-3.249-3.323-4.626C409.882,409.275,405.93,407.91,400.955,407.91z"/>
	<path d="M291.388,416.654v-0.148c-0.111,0.054-0.204,0.096-0.312,0.148H291.388z"/>
	<path d="M291.071,400.558v-1.402v-3.411h-5.723v7.324c1.85,0.465,3.752,1.212,5.723,2.323V400.558z"/>
	<path d="M290.31,407.91c-1.687,0-3.338,0.211-4.963,0.571v5.788c1.316-0.361,2.676-0.556,4.105-0.556
		c2.914,0,5.301,0.806,7.158,2.425c0.185,0.16,0.318,0.345,0.484,0.514h8.406c-0.732-1.705-1.835-3.25-3.318-4.636
		C299.231,409.276,295.279,407.904,290.31,407.91z"/>
	<path d="M306.585,311.517c0-4.021-1.456-7.4-4.402-10.151c-2.952-2.744-6.904-4.115-11.873-4.108c-1.687,0-3.338,0.211-4.963,0.571
		v5.788c1.316-0.361,2.676-0.556,4.105-0.556c2.914,0,5.301,0.807,7.158,2.425c1.854,1.614,2.799,3.66,2.791,6.147
		c0.008,2.472-0.938,4.502-2.827,6.098c-1.893,1.598-4.325,2.395-7.301,2.401c-1.273-0.003-2.588-0.212-3.927-0.549v7.323h0.199
		l-0.009-1.348c1.334,0.239,2.728,0.387,4.231,0.395c5.006,0.008,9.059-1.402,12.166-4.206
		C305.044,318.943,306.593,315.532,306.585,311.517z"/>
	<path d="M492.608,411.018c-0.01-2.47,0.937-4.503,2.828-6.098c1.899-1.597,4.332-2.394,7.301-2.394
		c1.272,0,2.583,0.206,3.918,0.542v-7.324h-0.184v1.349c-1.34-0.23-2.72-0.387-4.229-0.387c-5.015,0-9.068,1.403-12.168,4.2
		c-3.107,2.805-4.665,6.214-4.656,10.229c0,1.996,0.363,3.835,1.087,5.518h8.416C493.405,415.124,492.608,413.26,492.608,411.018z"
		/>
	<path d="M381.948,411.018c-0.01-2.47,0.952-4.503,2.835-6.098c1.883-1.597,4.315-2.394,7.299-2.394c3.021,0,6.237,0.96,9.626,2.865
		l0.007-4.843v-1.386v-3.419l-5.905,0.009v1.341c-1.334-0.23-2.728-0.387-4.239-0.387c-4.997-0.009-9.052,1.395-12.151,4.2
		c-3.107,2.805-4.656,6.214-4.656,10.229c0,1.996,0.363,3.835,1.087,5.518h8.404C382.745,415.119,381.94,413.257,381.948,411.018z"
		/>
	<path d="M402.032,416.654v-0.141c-0.105,0.052-0.192,0.091-0.295,0.141H402.032z"/>
	<path d="M291.071,289.906v-1.403v-3.411h-5.723v7.324c1.85,0.465,3.752,1.212,5.723,2.324V289.906z"/>
	<path d="M323.853,366.448c2.938,2.734,6.89,4.121,11.864,4.114c3.828,0,7.486-0.93,10.989-2.782v-6.107
		c-2.642,1.286-4.625,2.131-5.968,2.503c-1.332,0.38-2.721,0.575-4.161,0.575c-2.914,0-5.301-0.799-7.161-2.42
		c-1.86-1.619-2.805-3.665-2.796-6.152c-0.009-2.47,0.952-4.503,2.835-6.098c1.883-1.598,4.316-2.395,7.299-2.395
		c3.022,0,6.238,0.961,9.626,2.866l0.007-4.843v-1.386v-3.419l-5.904,0.009v1.34c-1.334-0.231-2.729-0.387-4.24-0.387
		c-4.997-0.01-9.051,1.395-12.151,4.198c-3.106,2.806-4.656,6.215-4.656,10.23C319.436,360.317,320.902,363.704,323.853,366.448z"/>
	<path d="M336.755,236.547c3.022,0,6.238,0.96,9.626,2.866l0.007-4.844v-1.386v-3.419l-5.904,0.009v1.342
		c-1.334-0.231-2.729-0.388-4.24-0.388c-4.997-0.009-9.051,1.396-12.151,4.2c-3.106,2.805-4.656,6.214-4.656,10.23
		c0,4.021,1.465,7.407,4.417,10.151c2.938,2.735,6.89,4.122,11.864,4.115c3.828,0,7.486-0.93,10.989-2.783v-6.106
		c-2.642,1.285-4.625,2.131-5.968,2.503c-1.332,0.38-2.721,0.575-4.161,0.575c-2.914,0-5.301-0.8-7.161-2.421
		c-1.86-1.618-2.805-3.665-2.796-6.152c-0.009-2.472,0.952-4.503,2.835-6.099C331.34,237.344,333.773,236.547,336.755,236.547z"/>
	<path d="M357.253,377.56c3.114-2.805,4.665-6.215,4.658-10.229c0-4.021-1.466-7.408-4.41-10.145
		c-2.946-2.752-6.897-4.116-11.872-4.116c-3.828,0-7.493,0.931-10.989,2.783l-0.009,6.107c2.65-1.293,4.643-2.131,5.975-2.511
		c1.334-0.388,2.714-0.565,4.162-0.572c2.914,0,5.302,0.804,7.16,2.425c1.868,1.612,2.798,3.658,2.798,6.137
		c0,2.481-0.944,4.511-2.844,6.107c-1.883,1.597-4.316,2.4-7.293,2.4c-3.031,0-6.246-0.96-9.633-2.865v4.836l-0.008,1.395
		l0.008,3.411h5.905l-0.008-1.342c1.341,0.231,2.728,0.389,4.239,0.389C350.1,381.76,354.154,380.365,357.253,377.56z"/>
	<path d="M357.501,246.047c-2.946-2.752-6.897-4.116-11.872-4.116c-3.828,0-7.493,0.93-10.989,2.783l-0.009,6.106
		c2.65-1.293,4.643-2.131,5.976-2.511c1.333-0.387,2.713-0.564,4.161-0.572c2.914,0,5.302,0.805,7.16,2.426
		c1.868,1.611,2.798,3.657,2.798,6.137c0,2.481-0.944,4.51-2.844,6.107c-1.883,1.597-4.316,2.4-7.293,2.4
		c-3.031,0-6.246-0.96-9.633-2.866v4.836l-0.008,1.396l0.008,3.411h5.905l-0.008-1.342c1.341,0.231,2.728,0.389,4.239,0.389
		c5.006-0.009,9.06-1.403,12.159-4.208c3.114-2.805,4.665-6.215,4.658-10.23C361.911,252.169,360.446,248.783,357.501,246.047z"/>
	<path d="M291.388,305.852c-2.65,1.295-4.634,2.141-5.975,2.511c-0.022,0.007-0.044,0.009-0.066,0.015v5.802
		c2.064-0.457,4.08-1.174,6.034-2.212L291.388,305.852z"/>
	<path d="M291.388,195.347h-0.312c-2.486,1.204-4.378,2.007-5.662,2.363c-0.022,0.006-0.044,0.008-0.066,0.014v5.802
		c2.064-0.457,4.08-1.174,6.034-2.212L291.388,195.347z"/>
	<path d="M299.402,200.982c0.008,2.473-0.938,4.502-2.827,6.099c-1.893,1.597-4.325,2.394-7.301,2.4
		c-1.273-0.003-2.588-0.212-3.927-0.549v7.323h0.199l-0.009-1.347c1.334,0.238,2.728,0.387,4.231,0.394
		c5.006,0.008,9.059-1.402,12.166-4.206c3.108-2.805,4.658-6.215,4.649-10.229c0-1.997-0.361-3.835-1.083-5.518h-8.406
		C298.601,196.878,299.408,198.741,299.402,200.982z"/>
</g>
</svg>
