<svg xmlns="http://www.w3.org/2000/svg" width="221.308" height="221.308" viewBox="285.347 195.347 221.308 221.308"><g opacity=".5"><path d="M410.053 200.973c0 2.481-.944 4.51-2.844 6.107-1.883 1.597-4.317 2.4-7.293 2.4-3.031 0-6.246-.96-9.633-2.865v4.836l-.008 1.395.008 3.411h5.905l-.008-1.342c1.341.231 2.728.389 4.239.389 5.006-.009 9.06-1.403 12.159-4.208 3.114-2.805 4.665-6.215 4.658-10.229 0-1.997-.363-3.836-1.087-5.518h-8.409c1.516 1.528 2.313 3.391 2.313 5.624zm24.165 165.475c2.938 2.734 6.89 4.121 11.864 4.114 3.828 0 7.486-.93 10.989-2.782v-6.107c-2.643 1.286-4.625 2.131-5.968 2.503-1.332.38-2.721.575-4.161.575-2.914 0-5.302-.799-7.161-2.42-1.859-1.619-2.806-3.665-2.796-6.152-.01-2.47.952-4.503 2.835-6.098 1.883-1.598 4.315-2.395 7.299-2.395 3.021 0 6.238.961 9.626 2.866l.007-4.843v-4.805l-5.905.009v1.34a24.566 24.566 0 0 0-4.239-.387c-4.997-.01-9.052 1.395-12.151 4.198-3.107 2.806-4.656 6.215-4.656 10.23 0 4.023 1.465 7.41 4.417 10.154zm33.648-120.401c-2.946-2.752-6.897-4.116-11.872-4.116-3.828 0-7.493.93-10.988 2.783l-.009 6.106c2.651-1.293 4.642-2.131 5.975-2.511 1.334-.387 2.713-.564 4.162-.572 2.913 0 5.301.805 7.16 2.426 1.868 1.611 2.798 3.657 2.798 6.137 0 2.481-.945 4.51-2.844 6.107-1.883 1.597-4.317 2.4-7.293 2.4-3.031 0-6.246-.96-9.633-2.866v4.836l-.008 1.396.008 3.411h5.904l-.007-1.342c1.34.231 2.728.389 4.239.389 5.006-.009 9.059-1.403 12.159-4.208 3.114-2.805 4.665-6.215 4.658-10.23.002-4.024-1.465-7.41-4.409-10.146z"/><path d="M391.043 204.097c3.828 0 7.486-.93 10.989-2.783v-5.967h-.295c-2.487 1.201-4.385 2.006-5.672 2.363-1.332.38-2.721.575-4.161.575-2.914 0-5.302-.8-7.161-2.42-.187-.162-.322-.349-.49-.519h-8.404c.735 1.707 1.844 3.253 3.33 4.635 2.938 2.736 6.89 4.123 11.864 4.116zm76.576 173.463c3.114-2.805 4.665-6.215 4.658-10.229 0-4.021-1.467-7.408-4.41-10.145-2.946-2.752-6.897-4.116-11.872-4.116-3.828 0-7.493.931-10.988 2.783l-.009 6.107c2.65-1.293 4.642-2.131 5.975-2.511 1.334-.388 2.713-.565 4.162-.572 2.913 0 5.301.804 7.16 2.425 1.868 1.612 2.798 3.658 2.798 6.137 0 2.481-.944 4.511-2.844 6.107-1.883 1.597-4.317 2.4-7.293 2.4-3.031 0-6.246-.96-9.633-2.865v4.836l-.009 1.395.009 3.411h5.904l-.007-1.342c1.34.231 2.728.389 4.239.389 5.006-.01 9.059-1.405 12.16-4.21z"/><path d="M389.958 195.347v.147c.11-.055.202-.096.31-.147h-.31zm22.622 126.4c3.114-2.806 4.665-6.215 4.658-10.23 0-4.021-1.467-7.408-4.41-10.144-2.946-2.752-6.897-4.116-11.872-4.116-3.828 0-7.493.93-10.989 2.783l-.009 6.106c2.65-1.293 4.643-2.131 5.975-2.511 1.333-.387 2.713-.565 4.162-.572 2.914 0 5.301.805 7.16 2.426 1.868 1.611 2.798 3.657 2.798 6.137 0 2.48-.944 4.51-2.844 6.106-1.883 1.598-4.317 2.401-7.293 2.401-3.031 0-6.246-.96-9.633-2.866v4.836l-.008 1.396.008 3.411h5.904l-.007-1.343c1.34.232 2.728.39 4.239.39 5.007-.009 9.062-1.405 12.161-4.21z"/><path d="M392.082 291.873c3.021 0 6.237.96 9.626 2.866l.007-4.844v-4.805l-5.905.009v1.341a24.665 24.665 0 0 0-4.239-.387c-4.997-.009-9.052 1.396-12.151 4.2-3.106 2.805-4.656 6.214-4.656 10.229 0 4.021 1.464 7.408 4.417 10.152 2.938 2.735 6.89 4.122 11.864 4.115 3.828 0 7.486-.93 10.989-2.783v-6.106c-2.643 1.285-4.625 2.131-5.968 2.503-1.332.38-2.721.574-4.161.574-2.914 0-5.301-.799-7.161-2.42-1.86-1.619-2.805-3.665-2.796-6.152-.009-2.472.952-4.503 2.835-6.099 1.883-1.595 4.316-2.393 7.299-2.393zm55.039-55.326c3.021 0 6.238.96 9.626 2.866l.007-4.844v-4.805l-5.905.009v1.342a24.563 24.563 0 0 0-4.239-.388c-4.997-.009-9.052 1.396-12.151 4.2-3.107 2.805-4.656 6.214-4.656 10.23 0 4.021 1.464 7.407 4.417 10.151 2.938 2.735 6.89 4.122 11.864 4.115 3.828 0 7.486-.93 10.989-2.783v-6.106c-2.643 1.285-4.625 2.131-5.969 2.503-1.331.38-2.72.575-4.16.575-2.914 0-5.302-.8-7.161-2.421-1.859-1.618-2.806-3.665-2.796-6.152-.01-2.472.951-4.503 2.835-6.099 1.883-1.596 4.316-2.393 7.299-2.393zm53.506 69.6c2.635-1.295 4.625-2.131 5.966-2.518.02-.005.04-.007.061-.012v-5.788a23.741 23.741 0 0 0-6.034 2.212l.007 6.106zm.318-89.892h5.708v-7.323c-1.848-.466-3.748-1.212-5.718-2.316l.01 4.834-.01 1.396.01 3.409zm.753-12.158c1.687 0 3.336-.212 4.956-.571v-5.802c-1.312.376-2.67.562-4.097.562-2.915 0-5.292-.809-7.153-2.429-.186-.158-.318-.342-.484-.51h-8.416c.735 1.707 1.843 3.253 3.329 4.635 2.937 2.744 6.898 4.106 11.865 4.115zm4.895 210.185c.02-.005.04-.007.061-.013v-5.787a23.741 23.741 0 0 0-6.034 2.212l.008 5.96h.309c2.473-1.206 4.371-2.001 5.656-2.372zm-5.658-218.935h-.309v.147l.309-.147zm.01 131.56h5.708v-7.323c-1.848-.466-3.748-1.212-5.718-2.317l.01 4.834-.01 1.396.01 3.41z"/><path d="M485.416 300.483c0 4.021 1.464 7.408 4.417 10.152 2.937 2.744 6.897 4.106 11.864 4.115 1.687 0 3.336-.212 4.956-.571v-5.802c-1.312.376-2.67.561-4.097.561-2.915 0-5.292-.808-7.153-2.428-1.866-1.61-2.796-3.657-2.796-6.144-.01-2.472.937-4.504 2.828-6.099 1.899-1.597 4.332-2.394 7.301-2.394 1.272 0 2.583.206 3.918.542v-7.324h-.184v1.349c-1.34-.23-2.72-.387-4.229-.387-5.015 0-9.068 1.403-12.168 4.2-3.108 2.805-4.666 6.213-4.657 10.23zM400.955 407.91c-3.828 0-7.493.93-10.989 2.783l-.008 5.96h.309c2.488-1.203 4.389-2 5.665-2.364 1.333-.387 2.713-.565 4.162-.572 2.914 0 5.301.805 7.16 2.425.186.16.319.344.486.513h8.409c-.735-1.706-1.841-3.249-3.323-4.626-2.944-2.754-6.896-4.119-11.871-4.119zm-109.567 8.744v-.148c-.111.054-.204.096-.312.148h.312zm-.317-16.096v-4.813h-5.723v7.324c1.85.465 3.752 1.212 5.723 2.323v-4.834zm-.761 7.352c-1.687 0-3.338.211-4.963.571v5.788a15.407 15.407 0 0 1 4.105-.556c2.914 0 5.301.806 7.158 2.425.185.16.318.345.484.514h8.406c-.732-1.705-1.835-3.25-3.318-4.636-2.951-2.74-6.903-4.112-11.872-4.106zm16.275-96.393c0-4.021-1.456-7.4-4.402-10.151-2.952-2.744-6.904-4.115-11.873-4.108-1.687 0-3.338.211-4.963.571v5.788a15.407 15.407 0 0 1 4.105-.556c2.914 0 5.301.807 7.158 2.425 1.854 1.614 2.799 3.66 2.791 6.147.008 2.472-.938 4.502-2.827 6.098-1.893 1.598-4.325 2.395-7.301 2.401-1.273-.003-2.588-.212-3.927-.549v7.323h.199l-.009-1.348c1.334.239 2.728.387 4.231.395 5.006.008 9.059-1.402 12.166-4.206 3.111-2.804 4.66-6.215 4.652-10.23zm186.023 99.501c-.01-2.47.937-4.503 2.828-6.098 1.899-1.597 4.332-2.394 7.301-2.394 1.272 0 2.583.206 3.918.542v-7.324h-.184v1.349c-1.34-.23-2.72-.387-4.229-.387-5.015 0-9.068 1.403-12.168 4.2-3.107 2.805-4.665 6.214-4.656 10.229 0 1.996.363 3.835 1.087 5.518h8.416c-1.516-1.529-2.313-3.393-2.313-5.635z"/><path d="M381.948 411.018c-.01-2.47.952-4.503 2.835-6.098 1.883-1.597 4.315-2.394 7.299-2.394 3.021 0 6.237.96 9.626 2.865l.007-4.843v-4.805l-5.905.009v1.341a24.665 24.665 0 0 0-4.239-.387c-4.997-.009-9.052 1.395-12.151 4.2-3.107 2.805-4.656 6.214-4.656 10.229 0 1.996.363 3.835 1.087 5.518h8.404c-1.51-1.534-2.315-3.396-2.307-5.635zm20.084 5.636v-.141c-.105.052-.192.091-.295.141h.295zM291.071 289.906v-4.814h-5.723v7.324c1.85.465 3.752 1.212 5.723 2.324v-4.834zm32.782 76.542c2.938 2.734 6.89 4.121 11.864 4.114 3.828 0 7.486-.93 10.989-2.782v-6.107c-2.642 1.286-4.625 2.131-5.968 2.503-1.332.38-2.721.575-4.161.575-2.914 0-5.301-.799-7.161-2.42-1.86-1.619-2.805-3.665-2.796-6.152-.009-2.47.952-4.503 2.835-6.098 1.883-1.598 4.316-2.395 7.299-2.395 3.022 0 6.238.961 9.626 2.866l.007-4.843v-4.805l-5.904.009v1.34a24.577 24.577 0 0 0-4.24-.387c-4.997-.01-9.051 1.395-12.151 4.198-3.106 2.806-4.656 6.215-4.656 10.23 0 4.023 1.466 7.41 4.417 10.154zm12.902-129.901c3.022 0 6.238.96 9.626 2.866l.007-4.844v-4.805l-5.904.009v1.342a24.575 24.575 0 0 0-4.24-.388c-4.997-.009-9.051 1.396-12.151 4.2-3.106 2.805-4.656 6.214-4.656 10.23 0 4.021 1.465 7.407 4.417 10.151 2.938 2.735 6.89 4.122 11.864 4.115 3.828 0 7.486-.93 10.989-2.783v-6.106c-2.642 1.285-4.625 2.131-5.968 2.503-1.332.38-2.721.575-4.161.575-2.914 0-5.301-.8-7.161-2.421-1.86-1.618-2.805-3.665-2.796-6.152-.009-2.472.952-4.503 2.835-6.099 1.884-1.596 4.317-2.393 7.299-2.393z"/><path d="M357.253 377.56c3.114-2.805 4.665-6.215 4.658-10.229 0-4.021-1.466-7.408-4.41-10.145-2.946-2.752-6.897-4.116-11.872-4.116-3.828 0-7.493.931-10.989 2.783l-.009 6.107c2.65-1.293 4.643-2.131 5.975-2.511 1.334-.388 2.714-.565 4.162-.572 2.914 0 5.302.804 7.16 2.425 1.868 1.612 2.798 3.658 2.798 6.137 0 2.481-.944 4.511-2.844 6.107-1.883 1.597-4.316 2.4-7.293 2.4-3.031 0-6.246-.96-9.633-2.865v4.836l-.008 1.395.008 3.411h5.905l-.008-1.342c1.341.231 2.728.389 4.239.389 5.008-.01 9.062-1.405 12.161-4.21zm.248-131.513c-2.946-2.752-6.897-4.116-11.872-4.116-3.828 0-7.493.93-10.989 2.783l-.009 6.106c2.65-1.293 4.643-2.131 5.976-2.511 1.333-.387 2.713-.564 4.161-.572 2.914 0 5.302.805 7.16 2.426 1.868 1.611 2.798 3.657 2.798 6.137 0 2.481-.944 4.51-2.844 6.107-1.883 1.597-4.316 2.4-7.293 2.4-3.031 0-6.246-.96-9.633-2.866v4.836l-.008 1.396.008 3.411h5.905l-.008-1.342c1.341.231 2.728.389 4.239.389 5.006-.009 9.06-1.403 12.159-4.208 3.114-2.805 4.665-6.215 4.658-10.23.002-4.024-1.463-7.41-4.408-10.146zm-66.113 59.805c-2.65 1.295-4.634 2.141-5.975 2.511-.022.007-.044.009-.066.015v5.802a23.706 23.706 0 0 0 6.034-2.212l.007-6.116zm0-110.505h-.312c-2.486 1.204-4.378 2.007-5.662 2.363-.022.006-.044.008-.066.014v5.802a23.706 23.706 0 0 0 6.034-2.212l.006-5.967zm8.014 5.635c.008 2.473-.938 4.502-2.827 6.099-1.893 1.597-4.325 2.394-7.301 2.4-1.273-.003-2.588-.212-3.927-.549v7.323h.199l-.009-1.347c1.334.238 2.728.387 4.231.394 5.006.008 9.059-1.402 12.166-4.206 3.108-2.805 4.658-6.215 4.649-10.229 0-1.997-.361-3.835-1.083-5.518h-8.406c1.507 1.529 2.314 3.392 2.308 5.633z"/></g></svg>