<?xml version="1.0" standalone="no"?>
<!DOCTYPE svg PUBLIC "-//W3C//DTD SVG 20010904//EN"
 "http://www.w3.org/TR/2001/REC-SVG-20010904/DTD/svg10.dtd">
<svg version="1.0" xmlns="http://www.w3.org/2000/svg"
 width="260.000000pt" height="260.000000pt" viewBox="0 0 260.000000 260.000000"
 preserveAspectRatio="xMidYMid meet">
<metadata>
Created by potrace 1.11, written by Peter Selinger 2001-2013
</metadata>
<g transform="translate(0.000000,260.000000) scale(0.100000,-0.100000)"
fill="#000000" stroke="none">
<path d="M1294 2571 c-2 -2 -4 -22 -4 -44 0 -30 -3 -38 -15 -33 -63 24 -383
25 -488 1 -12 -3 -33 -7 -47 -9 -52 -9 -167 -49 -232 -81 -147 -73 -277 -186
-363 -315 -102 -154 -141 -301 -132 -495 7 -130 23 -205 67 -302 121 -267 371
-449 700 -508 76 -14 335 -14 415 0 122 21 126 21 205 45 76 22 98 31 206 80
l62 28 0 186 1 185 -57 -26 c-283 -128 -402 -161 -574 -157 -189 3 -332 58
-445 170 -105 105 -152 224 -146 371 7 182 112 336 287 422 225 111 520 91
821 -55 44 -21 83 -40 87 -42 3 -2 7 128 7 287 1 160 -2 292 -6 292 -23 4
-345 3 -349 0z"/>
<path d="M1577 1834 c-1 -1 -40 -4 -87 -7 -161 -11 -350 -61 -490 -130 l-65
-32 -2 -182 c0 -101 2 -183 7 -183 4 0 52 21 106 46 215 100 341 133 508 132
199 -1 344 -58 469 -184 56 -56 112 -166 123 -239 43 -280 -112 -505 -401
-586 -128 -36 -319 -30 -480 14 -52 15 -136 47 -214 83 -52 24 -95 44 -97 44
-1 0 -3 -130 -3 -290 l-2 -290 181 0 180 0 0 40 0 41 53 -8 c87 -13 375 -9
452 6 224 45 386 129 536 281 101 102 156 190 200 321 29 84 33 108 35 229 5
195 -30 332 -123 478 -43 67 -178 205 -245 250 -115 76 -263 129 -418 151 -65
9 -217 20 -223 15z"/>
</g>
</svg>
